<svg width="291" height="185" viewBox="0 0 291 185" fill="none" xmlns="http://www.w3.org/2000/svg">
<path d="M0.77088 54.0561C0.770881 39.3549 12.736 27.3872 27.434 27.3872C42.132 27.3872 54.0972 39.3549 54.0972 54.0561C54.0972 68.7573 42.132 80.725 27.434 80.725L27.434 78.4996C40.9057 78.4996 51.8723 67.5307 51.8723 54.0561C51.8723 40.5815 40.9057 29.6125 27.434 29.6125C13.9623 29.6125 2.99574 40.5815 2.99574 54.0561L0.77088 54.0561Z" fill="#3EB985"/>
<path d="M15.5564 54.0562C15.5564 47.0122 21.285 41.2825 28.3274 41.2825C35.3699 41.2825 41.0984 47.0123 41.0984 54.0562C41.0984 61.1001 35.3699 66.8299 28.3274 66.8299C21.285 66.8299 15.5564 61.1001 15.5564 54.0562ZM38.8911 54.0562C38.8911 48.2388 34.1611 43.5078 28.3449 43.5078C22.5288 43.5078 17.7988 48.2388 17.7988 54.0562C17.7988 59.8736 22.5288 64.6046 28.3449 64.6046C34.1611 64.6046 38.8911 59.8736 38.8911 54.0562Z" fill="#3EB985"/>
<path d="M251.951 19.1869C251.951 8.60343 260.553 -1.30179e-06 271.134 -8.3927e-07C281.715 -3.76753e-07 290.334 8.60343 290.334 19.1869C290.334 29.7703 281.732 38.3737 271.151 38.3737L271.151 36.1484C280.506 36.1484 288.109 28.5438 288.109 19.1869C288.109 9.82999 280.489 2.22533 271.134 2.22533C261.779 2.22533 254.176 9.82998 254.176 19.1869L251.951 19.1869Z" fill="#3EB985"/>
<path d="M261.779 19.1869C261.779 14.0178 265.983 9.8125 271.151 9.8125C276.319 9.8125 280.524 14.0178 280.524 19.1869C280.524 24.356 276.319 28.5613 271.151 28.5613C265.983 28.5613 261.779 24.356 261.779 19.1869ZM278.281 19.1869C278.281 15.2444 275.075 12.0553 271.134 12.0553C267.192 12.0553 264.004 15.2619 264.004 19.1869C264.004 23.1119 267.21 26.3185 271.134 26.3185C275.058 26.3185 278.281 23.1119 278.281 19.1869Z" fill="#3EB985"/>
<path d="M84.1064 69.2304C84.1064 65.0952 87.4699 61.7134 91.6218 61.7134C95.7737 61.7134 99.1372 65.0777 99.1372 69.2304C99.1372 73.3832 95.7737 76.7475 91.6218 76.7475C87.4699 76.7475 84.1064 73.3832 84.1064 69.2304ZM96.8948 69.2304C96.8948 66.3217 94.5299 63.9387 91.6043 63.9387C88.6787 63.9387 86.3137 66.3042 86.3137 69.2304C86.3137 72.1566 88.6787 74.5222 91.6043 74.5222C94.5299 74.5222 96.8948 72.1566 96.8948 69.2304Z" fill="#1C81AC"/>
<path d="M227.267 75.8189C227.267 68.7749 232.996 63.0452 240.038 63.0452C247.081 63.0452 252.809 68.7749 252.809 75.8189C252.809 82.8628 247.081 88.5926 240.038 88.5926C232.996 88.5926 227.267 82.8628 227.267 75.8189ZM250.584 75.8189C250.584 70.0015 245.854 65.2705 240.038 65.2705C234.222 65.2705 229.492 70.0015 229.492 75.8189C229.492 81.6363 234.222 86.3673 240.038 86.3673C245.854 86.3673 250.584 81.6363 250.584 75.8189Z" fill="#3EB985"/>
<path d="M250.585 119.519C250.585 113.106 255.788 107.902 262.199 107.902C268.611 107.902 273.814 113.106 273.814 119.519C273.814 125.933 268.611 131.137 262.199 131.137C255.788 131.137 250.585 125.933 250.585 119.519ZM271.589 119.519C271.589 114.35 267.385 110.127 262.199 110.127C257.014 110.127 252.809 114.333 252.809 119.519C252.809 124.706 257.014 128.911 262.199 128.911C267.385 128.911 271.589 124.706 271.589 119.519Z" fill="#1C81AC"/>
<path d="M188.534 130.979C188.534 126.756 191.968 123.322 196.19 123.322C200.412 123.322 203.845 126.756 203.845 130.979C203.845 135.202 200.412 138.636 196.19 138.636C191.968 138.636 188.534 135.202 188.534 130.979ZM201.603 130.979C201.603 127.982 199.168 125.547 196.172 125.547C193.176 125.547 190.741 127.982 190.741 130.979C190.741 133.975 193.176 136.411 196.172 136.411C199.168 136.411 201.603 133.975 201.603 130.979Z" fill="#1C81AC"/>
<path d="M274.672 147.38C274.672 143.157 278.106 139.722 282.328 139.722C286.55 139.722 289.984 143.157 289.984 147.38C289.984 151.603 286.55 155.037 282.328 155.037C278.106 155.037 274.672 151.603 274.672 147.38ZM287.741 147.38C287.741 144.383 285.306 141.948 282.311 141.948C279.315 141.948 276.88 144.383 276.88 147.38C276.88 150.376 279.315 152.812 282.311 152.812C285.306 152.812 287.741 150.376 287.741 147.38Z" fill="#3EB985"/>
<path d="M136.819 93.0257C136.819 87.9267 140.971 83.7739 146.069 83.7739C151.167 83.7739 155.319 87.9267 155.319 93.0257C155.319 98.1247 151.167 102.277 146.069 102.277C140.971 102.277 136.819 98.1247 136.819 93.0257ZM153.077 93.0257C153.077 89.1533 149.923 85.9993 146.052 85.9993C142.18 85.9993 139.027 89.1533 139.027 93.0257C139.027 96.8981 142.18 100.052 146.052 100.052C149.923 100.052 153.077 96.8981 153.077 93.0257Z" fill="#1C81AC"/>
<path d="M63.925 74.2592L63.925 72.4194C63.925 55.7732 77.4668 42.2285 94.1093 42.2285C107.826 42.2285 118.986 53.3902 118.986 67.1101L118.986 72.5771L116.761 72.5771L116.761 67.1101C116.761 54.6168 106.6 44.4538 94.1269 44.4538C78.7106 44.4538 66.1673 56.9998 66.1673 72.4194L66.1673 74.2592L63.9425 74.2592L63.925 74.2592Z" fill="#1C81AC"/>
<path d="M44.059 92.2372C44.059 86.1395 49.0168 81.1807 55.1132 81.1807L56.3395 81.1807L56.3395 83.406L55.1132 83.406C50.2431 83.406 46.2839 87.366 46.2839 92.2372C46.2839 97.1084 50.2431 101.068 55.1132 101.068C59.9833 101.068 63.9425 97.1084 63.9425 92.2372L63.9425 82.3021L66.1674 82.3021L66.1674 92.2372C66.1674 98.335 61.2096 103.294 55.1132 103.294C49.0168 103.294 44.059 98.335 44.059 92.2372Z" fill="#1C81AC"/>
<path d="M173.17 158.664L173.17 156.439L266.456 156.439C274.322 156.439 280.734 162.834 280.734 170.719C280.734 178.604 274.34 185 266.456 185C258.573 185 252.179 178.604 252.179 170.719L252.179 169.09L254.404 169.09L254.404 170.719C254.404 177.36 259.799 182.775 266.456 182.775C273.113 182.775 278.509 177.378 278.509 170.719C278.509 164.061 273.113 158.664 266.456 158.664L173.17 158.664Z" fill="#1C81AC"/>
<path d="M163.763 41.773C163.763 33.6076 170.402 26.9667 178.566 26.9667L180.248 26.9667L180.248 29.192L178.566 29.192C171.629 29.192 166.005 34.8342 166.005 41.7555C166.005 48.6768 171.646 54.3189 178.566 54.3189C185.486 54.3189 191.127 48.6768 191.127 41.7555L191.127 20.168C191.127 9.88247 199.501 1.50683 209.784 1.50683L231.507 1.50684C238.216 1.50684 243.665 6.95626 243.665 13.6673C243.665 20.3783 238.216 25.8277 231.507 25.8277L217.107 25.8277L217.107 23.6024L231.507 23.6024C236.99 23.6024 241.44 19.1517 241.44 13.6673C241.44 8.18282 236.99 3.73216 231.507 3.73216L209.784 3.73216C200.727 3.73216 193.352 11.109 193.352 20.168L193.352 41.7555C193.352 49.9208 186.712 56.5618 178.548 56.5618C170.385 56.5618 163.745 49.9208 163.745 41.7555L163.763 41.773Z" fill="#1C81AC"/>
<path d="M0.770786 120.185C0.770787 114.035 5.78109 109.023 11.9301 109.023L13.1739 109.023L13.1739 111.249L11.9301 111.249C7.00739 111.249 2.99564 115.261 2.99564 120.185C2.99564 125.109 7.00739 129.122 11.9301 129.122C16.8528 129.122 20.8645 125.109 20.8645 120.185L20.8645 77.7988L23.0894 77.7988L23.0894 120.185C23.0894 126.335 18.0791 131.347 11.9301 131.347C5.78109 131.347 0.770786 126.335 0.770786 120.185Z" fill="#1C81AC"/>
<path d="M61.63 12.6159C61.63 6.51812 66.5878 1.55932 72.6842 1.55932L73.9105 1.55932L73.9105 3.78465L72.6842 3.78465C67.8141 3.78465 63.8549 7.74468 63.8549 12.6159C63.8549 17.4871 67.8141 21.4471 72.6842 21.4471C77.5543 21.4471 81.5135 17.4871 81.5135 12.6159C81.5135 6.51812 86.4712 1.55932 92.5677 1.55932L112.048 1.55933C117.829 1.55933 122.524 6.25529 122.524 12.0376C122.524 17.82 117.829 22.5159 112.048 22.5159C106.267 22.5159 101.572 17.82 101.572 12.0376L101.572 10.8812L103.797 10.8812L103.797 12.0376C103.797 16.5934 107.493 20.2906 112.048 20.2906C116.603 20.2906 120.299 16.5934 120.299 12.0376C120.299 7.48185 116.603 3.78465 112.048 3.78465L92.5677 3.78465C87.6975 3.78465 83.7384 7.74468 83.7384 12.6159C83.7384 18.7136 78.7806 23.6724 72.6842 23.6724C66.5878 23.6724 61.63 18.7136 61.63 12.6159Z" fill="#3EB985"/>
<path d="M163.991 102.277L163.991 100.052C174.449 100.052 182.946 108.55 182.946 119.011L182.946 133.362C182.946 140.669 188.884 146.609 196.19 146.609C203.495 146.609 209.434 140.669 209.434 133.362L209.434 133.152L211.658 133.152L211.658 133.362C211.658 141.895 204.721 148.834 196.19 148.834C187.658 148.834 180.721 141.895 180.721 133.362L180.721 119.011C180.721 109.794 173.223 102.277 163.991 102.277Z" fill="#1C81AC"/>
<path d="M258.538 87.4886L258.538 58.4367C258.538 49.7632 265.58 42.7192 274.252 42.7192C282.924 42.7192 289.966 49.7632 289.966 58.4367L289.966 130.243L287.741 130.243L287.741 58.4367C287.741 50.9897 281.697 44.9446 274.252 44.9446C266.807 44.9446 260.763 50.9897 260.763 58.4367L260.763 87.4886L258.538 87.4886Z" fill="#1C81AC"/>
<path d="M129.549 162.624L129.549 118.924L131.774 118.924L131.774 162.624C131.774 173.733 140.814 182.757 151.903 182.757C162.992 182.757 172.032 173.716 172.032 162.624L172.032 162.309L174.256 162.309L174.256 162.624C174.256 174.96 164.218 185 151.885 185C139.552 185 129.514 174.96 129.514 162.624L129.549 162.624Z" fill="#3EB985"/>
<path d="M215.898 102.961L215.898 100.736L264.687 100.736C275.04 100.736 283.467 109.164 283.467 119.519C283.467 129.875 275.04 138.321 264.687 138.321L264.424 138.321L264.424 136.096L264.687 136.096C273.814 136.096 281.242 128.666 281.242 119.537C281.242 110.408 273.814 102.978 264.687 102.978L215.898 102.978L215.898 102.961Z" fill="#1C81AC"/>
<path d="M167.407 76.1166L167.407 75.5384C167.407 68.7047 172.96 63.1501 179.792 63.1501L210.169 63.1501C217.002 63.1501 222.555 68.7047 222.555 75.5384L222.555 76.1166C222.555 82.9503 217.002 88.5049 210.169 88.5049L179.792 88.5049C172.96 88.5049 167.407 82.9503 167.407 76.1166ZM220.33 75.5384C220.33 69.9313 215.775 65.3755 210.169 65.3755L179.792 65.3755C174.186 65.3755 169.632 69.9313 169.632 75.5384L169.632 76.1166C169.632 81.7237 174.186 86.2795 179.792 86.2795L210.169 86.2795C215.775 86.2795 220.33 81.7237 220.33 76.1166L220.33 75.5384Z" fill="#3EB985"/>
<path d="M165.515 12.0378C165.515 6.2379 170.227 1.52441 176.026 1.52441C181.824 1.52441 186.537 6.2379 186.537 12.0378C186.537 17.8376 181.824 22.5511 176.026 22.5511C170.227 22.5511 165.515 17.8376 165.515 12.0378ZM184.312 12.0378C184.312 7.46446 180.598 3.74974 176.026 3.74974C171.453 3.74974 167.74 7.46446 167.74 12.0378C167.74 16.6111 171.453 20.3258 176.026 20.3258C180.598 20.3258 184.312 16.6111 184.312 12.0378Z" fill="#1C81AC"/>
<path d="M57.5308 37.1473C57.5308 32.171 61.5776 28.1409 66.5353 28.1409C71.493 28.1409 75.5398 32.1885 75.5398 37.1473C75.5398 42.1061 71.493 46.1538 66.5353 46.1538C61.5776 46.1538 57.5308 42.1061 57.5308 37.1473ZM73.3325 37.1473C73.3325 33.4151 70.2843 30.3662 66.5528 30.3662C62.8214 30.3662 59.7732 33.4151 59.7732 37.1473C59.7732 40.8796 62.8214 43.9284 66.5528 43.9284C70.2843 43.9284 73.3325 40.8796 73.3325 37.1473Z" fill="#1C81AC"/>
<path d="M126.589 12.0377C126.589 6.29045 131.266 1.59448 137.03 1.59448L151.325 1.59448C157.071 1.59448 161.766 6.27292 161.766 12.0377C161.766 17.8026 157.088 22.481 151.325 22.481L137.03 22.481C131.284 22.481 126.589 17.8026 126.589 12.0377ZM159.541 12.0377C159.541 7.51701 155.862 3.81981 151.325 3.81981L137.03 3.81981C132.51 3.81981 128.813 7.49948 128.813 12.0377C128.813 16.576 132.492 20.2557 137.03 20.2557L151.325 20.2557C155.844 20.2557 159.541 16.576 159.541 12.0377Z" fill="#1C81AC"/>
<path d="M265.475 87.0856L265.475 79.3934C265.475 74.382 269.557 70.2993 274.567 70.2993C279.578 70.2993 283.659 74.382 283.659 79.3934L283.659 87.0856C283.659 92.097 279.578 96.1797 274.567 96.1797C269.557 96.1797 265.475 92.097 265.475 87.0856ZM281.452 79.3758C281.452 75.591 278.369 72.5071 274.585 72.5071C270.801 72.5071 267.718 75.591 267.718 79.3758L267.718 87.0681C267.718 90.8529 270.801 93.9368 274.585 93.9368C278.369 93.9368 281.452 90.8529 281.452 87.0681L281.452 79.3758Z" fill="#1C81AC"/>
<path d="M223.326 174.487C223.326 168.687 228.038 163.973 233.837 163.973C239.635 163.973 244.348 168.687 244.348 174.487C244.348 180.287 239.635 185 233.837 185C228.038 185 223.326 180.287 223.326 174.487ZM242.123 174.487C242.123 169.913 238.409 166.199 233.837 166.199C229.264 166.199 225.551 169.913 225.551 174.487C225.551 179.06 229.264 182.775 233.837 182.775C238.409 182.775 242.123 179.06 242.123 174.487Z" fill="#1C81AC"/>
<path d="M187.43 174.557C187.43 168.809 192.108 164.114 197.871 164.114L211.22 164.114C216.967 164.114 221.661 168.792 221.661 174.557C221.661 180.322 216.984 185 211.22 185L197.871 185C192.125 185 187.43 180.322 187.43 174.557ZM219.419 174.557C219.419 170.036 215.74 166.339 211.203 166.339L197.854 166.339C193.334 166.339 189.638 170.019 189.638 174.557C189.638 179.095 193.317 182.775 197.854 182.775L211.203 182.775C215.723 182.775 219.419 179.095 219.419 174.557Z" fill="#1C81AC"/>
<path d="M137.065 62.3617L137.065 37.778C137.065 33.3799 140.656 29.7878 145.053 29.7878C149.45 29.7878 153.042 33.3799 153.042 37.778L153.042 62.3617C153.042 66.7598 149.45 70.3519 145.053 70.3519C140.656 70.3519 137.065 66.7773 137.065 62.3617ZM150.799 37.7605C150.799 34.5889 148.224 31.9956 145.036 31.9956C141.847 31.9956 139.272 34.5714 139.272 37.7605L139.272 62.3442C139.272 65.5157 141.847 68.109 145.036 68.109C148.224 68.109 150.799 65.5332 150.799 62.3442L150.799 37.7605Z" fill="#1C81AC"/>
<path d="M105.444 128.053C105.444 123.444 109.193 119.677 113.818 119.677C118.443 119.677 122.174 123.427 122.174 128.053C122.174 132.679 118.425 136.428 113.818 136.428C109.21 136.428 105.444 132.679 105.444 128.053ZM119.949 128.053C119.949 124.671 117.199 121.92 113.818 121.92C110.437 121.92 107.686 124.671 107.686 128.053C107.686 131.434 110.437 134.185 113.818 134.185C117.199 134.185 119.949 131.434 119.949 128.053Z" fill="#1C81AC"/>
<path d="M78.0624 159.453C78.0625 152.969 83.3355 147.713 89.7998 147.713C96.2642 147.713 101.537 152.987 101.537 159.453C101.537 165.918 96.2642 171.192 89.7998 171.192C83.3355 171.192 78.0624 165.918 78.0624 159.453ZM99.3124 159.453C99.3124 154.196 95.0379 149.938 89.7998 149.938C84.5618 149.938 80.2873 154.213 80.2873 159.453C80.2873 164.692 84.5618 168.967 89.7998 168.967C95.0379 168.967 99.3124 164.692 99.3124 159.453Z" fill="#1C81AC"/>
<path d="M105.496 162.887L105.496 147.222C105.496 142.649 109.228 138.917 113.8 138.917C118.372 138.917 122.104 142.649 122.104 147.222L122.104 162.887C122.104 167.46 118.372 171.192 113.8 171.192C109.228 171.192 105.496 167.46 105.496 162.887ZM119.879 147.222C119.879 143.875 117.146 141.142 113.8 141.142C110.454 141.142 107.721 143.875 107.721 147.222L107.721 162.887C107.721 166.234 110.454 168.967 113.8 168.967C117.146 168.967 119.879 166.234 119.879 162.887L119.879 147.222Z" fill="#1C81AC"/>
<path d="M188.902 113.422L188.902 106.29C188.902 102.277 192.178 99.0007 196.19 99.0007C200.201 99.0007 203.477 102.277 203.477 106.29L203.477 113.422C203.477 117.434 200.201 120.711 196.19 120.711C192.178 120.711 188.902 117.434 188.902 113.422ZM201.252 106.272C201.252 103.486 198.975 101.209 196.19 101.209C193.404 101.209 191.127 103.486 191.127 106.272L191.127 113.404C191.127 116.19 193.404 118.468 196.19 118.468C198.975 118.468 201.252 116.19 201.252 113.404L201.252 106.272Z" fill="#1C81AC"/>
<path d="M224.99 138.741L224.99 120.518C224.99 114.753 229.685 110.057 235.449 110.057C241.212 110.057 245.907 114.753 245.907 120.518L245.907 138.741C245.907 144.506 241.212 149.202 235.449 149.202C229.685 149.202 224.99 144.506 224.99 138.741ZM243.682 120.518C243.682 115.98 239.986 112.283 235.449 112.283C230.911 112.283 227.215 115.98 227.215 120.518L227.215 138.741C227.215 143.28 230.911 146.977 235.449 146.977C239.986 146.977 243.682 143.28 243.682 138.741L243.682 120.518Z" fill="#1C81AC"/>
<path d="M2.62433e-05 12.0727C2.64968e-05 6.27281 4.7125 1.55933 10.5111 1.55933C16.3097 1.55933 21.0222 6.27281 21.0222 12.0727C21.0222 17.8725 16.3097 22.586 10.5111 22.586C4.7125 22.586 2.59898e-05 17.8725 2.62433e-05 12.0727ZM18.7974 12.0727C18.7974 7.49937 15.0834 3.78465 10.5111 3.78465C5.9388 3.78465 2.22488 7.49937 2.22488 12.0727C2.22488 16.646 5.9388 20.3607 10.5111 20.3607C15.0834 20.3607 18.7974 16.646 18.7974 12.0727Z" fill="#1C81AC"/>
<path d="M0.770842 157.56C0.770842 153.267 4.25703 149.78 8.54906 149.78C12.8411 149.78 16.3273 153.267 16.3273 157.56C16.3273 161.853 12.8411 165.34 8.54906 165.34C4.25703 165.34 0.770842 161.853 0.770842 157.56ZM14.1024 157.56C14.1024 154.494 11.6148 152.006 8.54906 152.006C5.48332 152.006 2.9957 154.494 2.9957 157.56C2.9957 160.627 5.48332 163.115 8.54906 163.115C11.6148 163.115 14.1024 160.627 14.1024 157.56Z" fill="#1C81AC"/>
<path d="M265.475 59.5057C265.475 54.4943 269.557 50.4116 274.567 50.4116C279.578 50.4116 283.659 54.4943 283.659 59.5057C283.659 64.517 279.578 68.5997 274.567 68.5997C269.557 68.5997 265.475 64.517 265.475 59.5057ZM281.452 59.5057C281.452 55.7209 278.369 52.6369 274.585 52.6369C270.801 52.6369 267.718 55.7209 267.718 59.5057C267.718 63.2905 270.801 66.3744 274.585 66.3744C278.369 66.3744 281.452 63.2905 281.452 59.5057Z" fill="#1C81AC"/>
<path d="M198.94 45.0147C198.94 39.2323 203.635 34.5364 209.416 34.5364C215.197 34.5364 219.892 39.2323 219.892 45.0147C219.892 50.797 215.197 55.493 209.416 55.493C203.635 55.493 198.94 50.797 198.94 45.0147ZM217.667 45.0147C217.667 40.4589 213.971 36.7617 209.416 36.7617C204.861 36.7617 201.165 40.4589 201.165 45.0147C201.165 49.5705 204.861 53.2677 209.416 53.2677C213.971 53.2677 217.667 49.5705 217.667 45.0147Z" fill="#1C81AC"/>
<path d="M31.1654 117.557C31.1654 111.144 36.3859 105.905 42.8152 105.905C49.2444 105.905 54.465 111.126 54.465 117.557C54.465 123.988 49.2444 129.209 42.8152 129.209C36.3859 129.209 31.1654 123.988 31.1654 117.557ZM52.2226 117.557C52.2226 112.37 48.0006 108.147 42.8152 108.147C37.6297 108.147 33.4077 112.37 33.4077 117.557C33.4077 122.743 37.6297 126.966 42.8152 126.966C48.0006 126.966 52.2226 122.743 52.2226 117.557Z" fill="#3EB985"/>
<path d="M24.8062 12.0026C24.8062 6.25529 29.4837 1.55932 35.2473 1.55933L46.9847 1.55933C52.7307 1.55933 57.4257 6.23777 57.4257 12.0026C57.4257 17.7674 52.7482 22.4459 46.9847 22.4459L35.2473 22.4459C29.5012 22.4459 24.8062 17.7674 24.8062 12.0026ZM55.1833 12.0026C55.1833 7.48185 51.5044 3.78465 46.9671 3.78465L35.2297 3.78465C30.71 3.78465 27.0136 7.46433 27.0136 12.0026C27.0136 16.5409 30.6924 20.2205 35.2297 20.2205L46.9671 20.2205C51.4869 20.2205 55.1833 16.5409 55.1833 12.0026Z" fill="#1C81AC"/>
<path d="M221.942 45.0147C221.942 39.2323 226.637 34.5364 232.418 34.5364L244.365 34.5364C250.147 34.5364 254.842 39.2323 254.842 45.0147C254.842 50.797 250.147 55.493 244.365 55.493L232.418 55.493C226.637 55.493 221.942 50.797 221.942 45.0147ZM252.599 45.0147C252.599 40.4589 248.903 36.7617 244.348 36.7617L232.4 36.7617C227.863 36.7617 224.149 40.4589 224.149 45.0147C224.149 49.5705 227.846 53.2677 232.4 53.2677L244.348 53.2677C248.885 53.2677 252.599 49.5705 252.599 45.0147Z" fill="#1C81AC"/>
<path d="M31.1654 160.819L31.1654 143.49C31.1654 137.077 36.3859 131.837 42.8152 131.837C49.2444 131.837 54.465 137.059 54.465 143.49L54.465 160.819C54.465 167.232 49.2444 172.472 42.8152 172.472C36.3859 172.472 31.1654 167.25 31.1654 160.819ZM52.2226 143.49C52.2226 138.303 48.0006 134.08 42.8152 134.08C37.6297 134.08 33.4077 138.303 33.4077 143.49L33.4077 160.819C33.4077 166.006 37.6297 170.229 42.8152 170.229C48.0006 170.229 52.2226 166.006 52.2226 160.819L52.2226 143.49Z" fill="#3EB985"/>
<path d="M2.99573 100.788L2.99573 65.7258L0.770872 65.7258L0.77087 100.788L2.99573 100.788Z" fill="#1C81AC"/>
<path d="M219.664 145.627L219.664 110.565L217.44 110.565L217.44 145.627L219.664 145.627Z" fill="#1C81AC"/>
<path d="M65.4315 160.609L65.4315 124.443C65.4315 110.986 76.3631 100.052 89.8173 100.052L123.926 100.052C127.797 100.052 130.951 96.898 130.951 93.0255C130.951 89.1531 127.797 85.9991 123.926 85.9991L91.902 85.9991C82.7924 85.9991 75.382 78.5872 75.382 69.4756C75.382 60.3641 82.7924 52.9521 91.902 52.9521C101.012 52.9521 108.422 60.3641 108.422 69.4756L108.422 71.368L106.197 71.368L106.197 69.4756C106.197 61.5906 99.7853 55.1775 91.902 55.1775C84.0187 55.1775 77.6069 61.5906 77.6069 69.4756C77.6069 77.3607 84.0187 83.7738 91.902 83.7738L123.926 83.7738C129.024 83.7738 133.176 87.9266 133.176 93.0255C133.176 98.1245 129.024 102.277 123.926 102.277L89.8173 102.277C77.6069 102.277 67.6564 112.212 67.6564 124.443L67.6564 160.609C67.6564 172.822 77.5894 182.775 89.8173 182.775L119.126 182.775L119.126 185L89.8173 185C76.3631 185 65.4315 174.066 65.4315 160.609Z" fill="#3EB985"/>
<path d="M83.3706 31.1196L83.3706 28.8943L115.955 28.8943C124.679 28.8943 131.792 35.9908 131.792 44.7344L131.792 64.4469C131.792 71.8939 137.836 77.9391 145.281 77.9391C152.726 77.9391 158.77 71.8939 158.77 64.4469L158.77 64.2367L160.995 64.2367L160.995 64.4469C160.995 73.1205 153.953 80.1644 145.281 80.1644C136.609 80.1644 129.567 73.1205 129.567 64.4469L129.567 44.7344C129.567 37.2349 123.47 31.1196 115.955 31.1196L83.3706 31.1196Z" fill="#1C81AC"/>
<path d="M1.892 139.302L1.892 137.077L6.00886 137.077C17.028 137.077 25.9975 146.048 25.9975 157.07L25.9975 164.972C25.9975 174.224 33.5304 181.758 42.7802 181.758C52.0299 181.758 59.5629 174.224 59.5629 164.972L59.5629 164.709L61.7877 164.709L61.7877 164.972C61.7877 175.45 53.2562 183.984 42.7802 183.984C32.3041 183.984 23.7726 175.45 23.7726 164.972L23.7726 157.07C23.7726 147.275 15.8017 139.302 6.00886 139.302L1.892 139.302Z" fill="#1C81AC"/>
<path d="M141.339 161.66L141.339 158.296L143.564 158.296L143.564 161.66C143.564 165.69 146.84 168.967 150.869 168.967C154.898 168.967 158.174 165.69 158.174 161.66L158.174 134.133C158.174 130.103 154.898 126.826 150.869 126.826C146.84 126.826 143.564 130.103 143.564 134.133L143.564 146.766L141.339 146.766L141.339 134.133C141.339 128.876 145.614 124.583 150.887 124.583C156.16 124.583 160.434 128.859 160.434 134.133L160.434 161.66C160.434 166.917 156.16 171.21 150.887 171.21C145.614 171.21 141.339 166.935 141.339 161.66Z" fill="#3EB985"/>
<path d="M75.3645 122.849C75.3645 115.945 80.9704 110.338 87.8727 110.338L159.418 110.338C167.617 110.338 174.274 116.996 174.274 125.197L174.274 151.41L172.049 151.41L172.049 125.197C172.049 118.24 166.391 112.563 159.418 112.563L87.8727 112.563C82.1967 112.563 77.5894 117.171 77.5894 122.849C77.5894 128.526 82.1967 133.134 87.8727 133.134L98.0685 133.134L98.0685 135.359L87.8727 135.359C80.9704 135.359 75.3645 129.752 75.3645 122.849Z" fill="#1C81AC"/>
</svg>
