<svg xmlns="http://www.w3.org/2000/svg" width="178" height="42" viewBox="0 0 178 42" fill="none">
  <g clip-path="url(#clip0_17_819)">
    <path d="M104.64 41.5673V38.7989C104.64 38.5972 104.633 38.3955 104.658 38.1938L104.644 38.3075C104.669 38.1242 104.717 37.9482 104.791 37.7758L104.747 37.8785C104.817 37.7135 104.909 37.5558 105.019 37.4165L104.953 37.5045C105.059 37.3688 105.184 37.2441 105.321 37.1378L105.232 37.2038C105.376 37.0938 105.53 37.0021 105.696 36.9324L105.593 36.9764C105.762 36.9031 105.942 36.8554 106.126 36.8298L106.012 36.8444C106.2 36.8188 106.391 36.8188 106.582 36.8444L106.468 36.8298C106.652 36.8554 106.829 36.9031 107.002 36.9764L106.899 36.9324C107.064 37.0021 107.222 37.0938 107.362 37.2038L107.274 37.1378C107.41 37.2441 107.535 37.3688 107.642 37.5045L107.575 37.4165C107.686 37.5595 107.778 37.7135 107.848 37.8785L107.803 37.7758C107.877 37.9445 107.925 38.1242 107.951 38.3075L107.936 38.1938C107.958 38.3698 107.954 38.5459 107.954 38.7219V41.5673C107.954 41.7947 108.153 42.011 108.388 42C108.624 41.989 108.822 41.8093 108.822 41.5673V38.6265C108.822 38.5312 108.822 38.4359 108.819 38.3405C108.793 37.9408 108.682 37.5485 108.477 37.2038C108.271 36.8591 107.998 36.5804 107.667 36.3641C107.336 36.1477 106.939 36.0231 106.538 35.9754C105.78 35.8874 104.989 36.1917 104.467 36.7454C104.015 37.2258 103.772 37.8528 103.772 38.5092V41.5673C103.772 41.7947 103.971 42.011 104.206 42C104.441 41.989 104.64 41.8093 104.64 41.5673Z" fill="#1C3687"/>
    <path d="M128.512 37.4238C128.509 36.9178 128.244 36.4448 127.813 36.1771C127.545 36.0084 127.24 35.9608 126.927 35.9608C126.497 35.9608 126.066 35.9608 125.64 35.9608C125.213 35.9608 124.801 36.1221 124.474 36.4044C124.12 36.7088 123.922 37.1671 123.9 37.6255C123.878 38.0875 124.065 38.5459 124.382 38.8796C124.698 39.2132 125.165 39.4076 125.629 39.4113C126.011 39.4113 126.394 39.4113 126.776 39.4113C126.839 39.4113 126.901 39.4149 126.964 39.4223L126.85 39.4076C126.96 39.4223 127.067 39.4516 127.173 39.4956L127.07 39.4516C127.177 39.4956 127.273 39.5543 127.365 39.6239L127.276 39.5579C127.361 39.6239 127.438 39.7009 127.504 39.7853L127.438 39.6973C127.508 39.7889 127.567 39.8843 127.611 39.9906L127.567 39.8879C127.611 39.9906 127.641 40.097 127.655 40.2106L127.641 40.097C127.655 40.218 127.655 40.3353 127.641 40.4563L127.655 40.3426C127.641 40.4526 127.611 40.559 127.567 40.6653L127.611 40.5626C127.567 40.669 127.508 40.7643 127.438 40.856L127.504 40.768C127.438 40.8523 127.361 40.9293 127.276 40.9953L127.365 40.9293C127.273 40.999 127.177 41.0577 127.07 41.1017L127.173 41.0577C127.07 41.1017 126.964 41.131 126.85 41.1457L126.964 41.131C126.761 41.1567 126.548 41.142 126.346 41.142H125.514C125.423 41.142 125.327 41.142 125.235 41.1347L125.349 41.1493C125.257 41.1383 125.169 41.1127 125.08 41.076L125.183 41.12C125.099 41.0833 125.022 41.0393 124.952 40.9843L125.04 41.0503C124.974 40.999 124.911 40.9367 124.86 40.8707L124.926 40.9587C124.871 40.8853 124.827 40.8083 124.79 40.7276L124.834 40.8303C124.797 40.746 124.775 40.6543 124.76 40.5626L124.775 40.6763C124.768 40.6323 124.768 40.5883 124.768 40.5406C124.768 40.4306 124.72 40.3133 124.643 40.2363C124.565 40.1593 124.444 40.1043 124.337 40.1116C124.106 40.1226 123.903 40.3023 123.903 40.5443C123.907 41.0503 124.172 41.5234 124.602 41.791C124.871 41.9597 125.176 42.0074 125.489 42.0074C125.919 42.0074 126.349 42.0074 126.776 42.0074C127.203 42.0074 127.615 41.846 127.942 41.5637C128.295 41.2593 128.494 40.801 128.516 40.3426C128.538 39.8843 128.35 39.4223 128.034 39.0886C127.718 38.7549 127.251 38.5605 126.787 38.5569C126.405 38.5569 126.022 38.5569 125.64 38.5569C125.577 38.5569 125.514 38.5532 125.452 38.5459L125.566 38.5605C125.456 38.5459 125.349 38.5165 125.242 38.4725L125.345 38.5165C125.239 38.4725 125.143 38.4139 125.051 38.3442L125.139 38.4102C125.055 38.3442 124.977 38.2672 124.911 38.1829L124.977 38.2709C124.908 38.1792 124.849 38.0839 124.805 37.9775L124.849 38.0802C124.805 37.9775 124.775 37.8712 124.76 37.7575L124.775 37.8712C124.76 37.7502 124.76 37.6328 124.775 37.5118L124.76 37.6255C124.775 37.5155 124.805 37.4092 124.849 37.3028L124.805 37.4055C124.849 37.2992 124.908 37.2038 124.977 37.1121L124.911 37.2001C124.977 37.1158 125.055 37.0388 125.139 36.9728L125.051 37.0388C125.143 36.9691 125.239 36.9105 125.345 36.8665L125.242 36.9105C125.345 36.8665 125.452 36.8371 125.566 36.8225L125.452 36.8371C125.654 36.8115 125.868 36.8261 126.07 36.8261C126.346 36.8261 126.625 36.8261 126.901 36.8261C126.993 36.8261 127.089 36.8261 127.181 36.8335L127.067 36.8188C127.159 36.8298 127.247 36.8555 127.335 36.8921L127.232 36.8481C127.317 36.8848 127.394 36.9288 127.464 36.9838L127.376 36.9178C127.442 36.9691 127.504 37.0315 127.556 37.0975L127.49 37.0095C127.545 37.0828 127.589 37.1598 127.626 37.2405L127.582 37.1378C127.618 37.2221 127.641 37.3138 127.655 37.4055L127.641 37.2918C127.648 37.3358 127.648 37.3798 127.648 37.4275C127.648 37.5375 127.696 37.6548 127.773 37.7318C127.85 37.8088 127.972 37.8638 128.078 37.8565C128.31 37.8455 128.512 37.6658 128.512 37.4238Z" fill="#1C3687"/>
    <path d="M114.7 41.5673V38.7989C114.7 38.5972 114.693 38.3955 114.719 38.1938L114.704 38.3075C114.73 38.1242 114.777 37.9482 114.851 37.7758L114.807 37.8785C114.877 37.7135 114.969 37.5558 115.079 37.4165L115.013 37.5045C115.119 37.3688 115.244 37.2441 115.381 37.1378L115.292 37.2038C115.436 37.0938 115.59 37.0021 115.756 36.9324L115.653 36.9764C115.822 36.9031 116.002 36.8554 116.186 36.8298L116.072 36.8444C116.26 36.8188 116.451 36.8188 116.642 36.8444L116.528 36.8298C116.712 36.8554 116.889 36.9031 117.062 36.9764L116.959 36.9324C117.124 37.0021 117.282 37.0938 117.422 37.2038L117.334 37.1378C117.47 37.2441 117.595 37.3688 117.702 37.5045L117.635 37.4165C117.746 37.5595 117.838 37.7135 117.908 37.8785L117.863 37.7758C117.937 37.9445 117.985 38.1242 118.011 38.3075L117.996 38.1938C118.018 38.3698 118.014 38.5459 118.014 38.7219V41.5673C118.014 41.7947 118.213 42.011 118.448 42C118.684 41.989 118.882 41.8093 118.882 41.5673V38.6265C118.882 38.5312 118.882 38.4359 118.879 38.3405C118.853 37.9408 118.743 37.5485 118.537 37.2038C118.331 36.8591 118.058 36.5804 117.727 36.3641C117.396 36.1477 116.999 36.0231 116.598 35.9754C115.84 35.8874 115.05 36.1917 114.527 36.7454C114.075 37.2258 113.832 37.8528 113.832 38.5092V41.5673C113.832 41.7947 114.031 42.011 114.266 42C114.501 41.989 114.7 41.8093 114.7 41.5673Z" fill="#1C3687"/>
    <path d="M115.494 40.0272H117.227C117.455 40.0272 117.672 39.8292 117.661 39.5946C117.65 39.3599 117.47 39.1619 117.227 39.1619H115.494C115.266 39.1619 115.049 39.3599 115.06 39.5946C115.071 39.8292 115.252 40.0272 115.494 40.0272Z" fill="#1C3687"/>
    <path d="M134.394 41.5673V38.7989C134.394 38.5972 134.386 38.3955 134.412 38.1938L134.397 38.3075C134.423 38.1242 134.471 37.9482 134.545 37.7758L134.5 37.8785C134.57 37.7135 134.662 37.5558 134.773 37.4165L134.706 37.5045C134.813 37.3688 134.938 37.2441 135.074 37.1378L134.986 37.2038C135.129 37.0938 135.284 37.0021 135.449 36.9324L135.346 36.9764C135.516 36.9031 135.696 36.8554 135.88 36.8298L135.766 36.8444C135.953 36.8188 136.145 36.8188 136.336 36.8444L136.222 36.8298C136.406 36.8554 136.582 36.9031 136.755 36.9764L136.652 36.9324C136.818 37.0021 136.976 37.0938 137.116 37.2038L137.027 37.1378C137.163 37.2441 137.289 37.3688 137.395 37.5045L137.329 37.4165C137.439 37.5595 137.531 37.7135 137.601 37.8785L137.557 37.7758C137.631 37.9445 137.678 38.1242 137.704 38.3075L137.689 38.1938C137.712 38.3698 137.708 38.5459 137.708 38.7219V41.5673C137.708 41.7947 137.906 42.011 138.142 42C138.377 41.989 138.576 41.8093 138.576 41.5673V38.6265C138.576 38.5312 138.576 38.4359 138.572 38.3405C138.547 37.9408 138.436 37.5485 138.23 37.2038C138.024 36.8591 137.752 36.5804 137.421 36.3641C137.09 36.1477 136.693 36.0231 136.292 35.9754C135.534 35.8874 134.743 36.1917 134.221 36.7454C133.768 37.2258 133.526 37.8528 133.526 38.5092V41.5673C133.526 41.7947 133.724 42.011 133.96 42C134.195 41.989 134.394 41.8093 134.394 41.5673Z" fill="#1C3687"/>
    <path d="M135.262 40.0272H136.994C137.222 40.0272 137.439 39.8292 137.428 39.5946C137.417 39.3599 137.237 39.1619 136.994 39.1619H135.262C135.034 39.1619 134.817 39.3599 134.828 39.5946C134.839 39.8292 135.019 40.0272 135.262 40.0272Z" fill="#1C3687"/>
    <path d="M146.797 39.7669C147.036 40.0053 147.275 40.2436 147.514 40.482C147.893 40.8597 148.276 41.241 148.655 41.6187C148.743 41.7067 148.827 41.791 148.916 41.879C149.078 42.0404 149.372 42.0514 149.53 41.879C149.688 41.7067 149.703 41.439 149.53 41.2667C149.291 41.0283 149.052 40.79 148.813 40.5516C148.434 40.174 148.051 39.7926 147.672 39.4149C147.584 39.3269 147.5 39.2426 147.411 39.1546C147.249 38.9932 146.955 38.9822 146.797 39.1546C146.639 39.3269 146.624 39.5946 146.797 39.7669Z" fill="#1C3687"/>
    <path d="M146.62 35.9608C144.947 35.9608 143.593 37.3138 143.593 38.9786C143.593 40.6433 144.951 41.9964 146.62 41.9964C148.29 41.9964 149.648 40.6433 149.648 38.9786C149.648 37.3138 148.29 35.9608 146.62 35.9608ZM146.62 41.1347C145.425 41.1347 144.458 40.1703 144.458 38.9786C144.458 37.7868 145.425 36.8225 146.62 36.8225C147.816 36.8225 148.783 37.7868 148.783 38.9786C148.783 40.1703 147.816 41.1347 146.62 41.1347Z" fill="#1C3687"/>
    <path d="M171.765 12.1153V27.527C171.765 28.3227 172.111 29.1551 172.674 29.7161C173.236 30.2771 174.097 30.6585 174.87 30.6218C175.642 30.5851 176.506 30.3211 177.066 29.7161C177.625 29.1111 177.974 28.3667 177.974 27.527V12.1153C177.974 11.3195 177.628 10.4872 177.066 9.92615C176.503 9.36512 175.642 8.98377 174.87 9.02044C174.068 9.05711 173.233 9.32112 172.674 9.92615C172.115 10.5312 171.765 11.2755 171.765 12.1153Z" fill="url(#paint0_linear_17_819)"/>
    <path d="M161.819 12.1153V27.527C161.819 28.3227 162.165 29.1551 162.728 29.7161C163.29 30.2771 164.151 30.6585 164.924 30.6218C165.696 30.5851 166.56 30.3211 167.12 29.7161C167.679 29.1111 168.028 28.3667 168.028 27.527V12.1153C168.028 11.3195 167.682 10.4872 167.12 9.92615C166.557 9.36512 165.696 8.98377 164.924 9.02044C164.122 9.05711 163.287 9.32112 162.728 9.92615C162.169 10.5312 161.819 11.2755 161.819 12.1153Z" fill="url(#paint1_linear_17_819)"/>
    <path d="M151.873 12.1153V27.527C151.873 28.3227 152.219 29.1551 152.782 29.7161C153.344 30.2771 154.205 30.6585 154.978 30.6218C155.75 30.5851 156.614 30.3211 157.173 29.7161C157.733 29.1111 158.082 28.3667 158.082 27.527V12.1153C158.082 11.3195 157.736 10.4872 157.173 9.92615C156.611 9.36512 155.75 8.98377 154.978 9.02044C154.176 9.05711 153.341 9.32112 152.782 9.92615C152.222 10.5312 151.873 11.2755 151.873 12.1153Z" fill="url(#paint2_linear_17_819)"/>
    <path d="M141.927 12.1153V27.527C141.927 28.3227 142.273 29.1551 142.835 29.7161C143.372 30.2514 144.259 30.6585 145.031 30.6218C145.804 30.5851 146.668 30.3211 147.227 29.7161C147.786 29.1111 148.136 28.3667 148.136 27.527V12.1153C148.136 11.3195 147.79 10.4872 147.227 9.92615C146.664 9.36512 145.804 8.98377 145.031 9.02044C144.229 9.05711 143.394 9.32112 142.835 9.92615C142.276 10.5312 141.927 11.2755 141.927 12.1153Z" fill="url(#paint3_linear_17_819)"/>
    <path d="M138.193 24.4249V15.5401C138.193 14.4144 138.212 13.285 138.193 12.1593C138.193 12.1446 138.193 12.1263 138.193 12.1116C138.193 11.7743 138.127 11.4332 138.013 11.1069C137.873 10.6742 137.649 10.2745 137.314 9.9555C137.303 9.9445 137.296 9.9335 137.285 9.9225C136.748 9.38714 135.861 8.98012 135.089 9.01679C135.082 9.01679 135.071 9.01679 135.063 9.01679H128.932C128.06 9.01679 127.177 8.98012 126.309 9.08646C125.599 9.17446 124.896 9.26614 124.212 9.47881C123.554 9.68416 122.903 9.95917 122.289 10.2745C121.288 10.7842 120.346 11.4992 119.57 12.3096C118.794 13.12 118.092 14.066 117.628 15.0927C117.341 15.7234 117.062 16.3688 116.885 17.0398C116.705 17.7292 116.613 18.4479 116.55 19.1519C116.451 20.296 116.595 21.4987 116.885 22.6061C117.172 23.6988 117.65 24.7989 118.29 25.7339C119.736 27.8424 121.759 29.3971 124.212 30.1635C125.496 30.5668 126.839 30.6292 128.17 30.6292L127.96 24.4359C127.552 24.4359 127.144 24.4359 126.736 24.4065C126.335 24.3295 125.937 24.2232 125.551 24.0838C125.194 23.9078 124.849 23.7098 124.521 23.4825C124.22 23.2258 123.94 22.9471 123.683 22.6464C123.458 22.3201 123.256 21.9754 123.079 21.6197C122.943 21.2347 122.833 20.846 122.756 20.4427C122.723 20.0283 122.723 19.614 122.756 19.1996C122.833 18.7999 122.94 18.4076 123.079 18.0226C123.256 17.6669 123.455 17.3222 123.683 16.9958C123.94 16.6952 124.22 16.4165 124.521 16.1598C124.849 15.9361 125.191 15.7344 125.551 15.5584C125.919 15.4264 126.294 15.3238 126.677 15.2468C127.618 15.1661 128.582 15.2101 129.524 15.2101H131.981V24.4249H138.193Z" fill="url(#paint4_linear_17_819)"/>
    <path d="M138.193 30.6181H110.323C109.194 30.6181 108.061 30.6364 106.932 30.6181C106.917 30.6181 106.898 30.6181 106.884 30.6181C106.086 30.6181 105.251 30.2734 104.688 29.7124C104.125 29.1514 103.743 28.2933 103.779 27.5233C103.816 26.7239 104.081 25.8915 104.688 25.3342C105.295 24.7768 106.041 24.4285 106.884 24.4285H138.193V30.6218V30.6181Z" fill="url(#paint5_linear_17_819)"/>
    <path d="M174.873 6.75432C176.6 6.75432 178 5.35888 178 3.63751C178 1.91614 176.6 0.520691 174.873 0.520691C173.147 0.520691 171.747 1.91614 171.747 3.63751C171.747 5.35888 173.147 6.75432 174.873 6.75432Z" fill="#41B07A"/>
    <path d="M131.16 3.63751C131.16 2.69879 131.528 1.84075 132.124 1.20272C131.591 0.77737 130.91 0.520691 130.175 0.520691C128.446 0.520691 127.048 1.91776 127.048 3.63751C127.048 5.35725 128.45 6.75432 130.175 6.75432C130.914 6.75432 131.591 6.49764 132.124 6.07229C131.528 5.43059 131.16 4.57622 131.16 3.63751Z" fill="#41B07A"/>
    <path d="M134.971 6.75432C136.698 6.75432 138.098 5.35888 138.098 3.63751C138.098 1.91614 136.698 0.520691 134.971 0.520691C133.244 0.520691 131.844 1.91614 131.844 3.63751C131.844 5.35888 133.244 6.75432 134.971 6.75432Z" fill="#41B07A"/>
    <path d="M5.6094 11.4625C6.18321 10.8758 6.47748 10.1058 6.47748 9.16708V2.37976H4.90317V9.16708C4.90317 9.80511 4.73029 10.3075 4.38453 10.6558C4.07187 10.9748 3.64887 11.1362 3.12655 11.1362C2.60423 11.1362 2.21801 10.9712 1.898 10.6412C1.55592 10.2928 1.37936 9.79411 1.37936 9.16342C1.37936 8.96907 1.39407 8.78207 1.4235 8.60972C1.44925 8.44105 1.50442 8.24304 1.5927 8.0157L1.62948 7.92036L0.290585 7.58301L0.261159 7.66368C0.161845 7.94969 0.0882791 8.21004 0.0514961 8.44105C0.0183915 8.67206 0 8.91774 0 9.16708C0 10.0948 0.290585 10.8648 0.860721 11.4479C1.48235 12.1006 2.24744 12.4306 3.12655 12.4306C4.14912 12.4306 4.98409 12.1042 5.6094 11.4625Z" fill="#1C3687"/>
    <path d="M10.781 10.2708H11.8072C11.7741 10.4395 11.7005 10.6339 11.5865 10.8502C11.4872 11.0335 11.3438 11.2352 11.1635 11.4552C10.9796 11.6716 10.7184 11.9356 10.3837 12.2473L10.2991 12.3243L11.421 13.1163L11.4762 13.065C11.8219 12.746 12.1088 12.4526 12.3259 12.1923C12.5649 11.9099 12.7562 11.6312 12.8923 11.3746C13.2896 10.7145 13.4956 9.95549 13.4956 9.12312V5.34627C13.4956 4.75591 13.1351 4.29755 12.4252 3.99321C11.9507 3.7842 11.4063 3.67786 10.792 3.67786C9.73634 3.68152 8.89401 4.00787 8.28709 4.64224C7.73902 5.22893 7.45947 6.02464 7.45947 7.01102C7.45947 7.93873 7.75006 8.7051 8.32019 9.29179C8.94183 9.94449 9.77312 10.2745 10.7846 10.2745L10.781 10.2708ZM9.53403 5.43427C9.82829 5.11892 10.2513 4.96125 10.8067 4.96125C11.1378 4.96125 11.4284 5.01625 11.6748 5.12259C11.7851 5.17026 11.9176 5.24726 11.9176 5.34627V8.98744H11.0017L10.9097 8.98011C10.3212 8.98011 9.86508 8.8151 9.54507 8.48509C9.20298 8.13673 9.02643 7.63805 9.02643 7.00735C9.02643 6.31432 9.19563 5.78262 9.53035 5.43427H9.53403Z" fill="#1C3687"/>
    <path d="M19.9988 9.62177C20.466 9.18542 20.7014 8.65006 20.7014 8.03403V2.37976H19.1271V8.03403C19.1271 8.30171 19.0461 8.52539 18.8806 8.7124C18.7188 8.89207 18.5385 8.98008 18.3215 8.98008H16.4787C16.6001 8.7454 16.6626 8.43005 16.6626 8.03403V2.37976H15.0809V8.03403C15.0809 8.32371 14.989 8.55839 14.7977 8.74906C14.6432 8.90307 14.4299 8.98008 14.1466 8.98008H14.0547V10.2708H18.3252C18.9762 10.2708 19.539 10.0508 20.0062 9.62177H19.9988Z" fill="#1C3687"/>
    <path d="M16.8282 1.3824H15.9197C15.8608 1.3714 15.8057 1.32006 15.7579 1.23206C15.7284 1.18072 15.7137 1.12205 15.71 1.04505C15.71 1.03038 15.7064 1.01571 15.7064 1.00471C15.7064 0.964377 15.7137 0.927709 15.7247 0.898374C15.7505 0.832371 15.7836 0.828704 15.813 0.828704C15.8682 0.828704 15.9087 0.839704 15.9271 0.850705C15.9675 0.883706 15.9969 0.942376 16.0117 1.02671L16.03 1.11105L16.7436 1.02305L16.7216 0.924042C16.6774 0.718699 16.5818 0.553691 16.431 0.432685C16.2655 0.304345 16.0558 0.238342 15.813 0.238342C15.4158 0.238342 15.1509 0.40335 15.0332 0.733366C15.0001 0.828704 14.9817 0.927709 14.9817 1.02671V1.10005C14.9928 1.19905 15.0148 1.29439 15.0516 1.38606H14.8052V1.96909H16.8246V1.38606L16.8282 1.3824Z" fill="#1C3687"/>
    <path d="M23.1253 2.37976H21.551V9.84545H23.1253V2.37976Z" fill="#1C3687"/>
    <path d="M31.3502 3.01048C31.4237 3.08015 31.5083 3.13516 31.6003 3.17549C31.6959 3.21583 31.7989 3.23783 31.9056 3.23783C32.0123 3.23783 32.1153 3.21583 32.2146 3.17549C32.3102 3.13516 32.3948 3.08015 32.4684 3.01048C32.5419 2.94081 32.6008 2.85648 32.6413 2.76114C32.6817 2.6658 32.7038 2.56313 32.7038 2.44946C32.7038 2.33579 32.6817 2.23311 32.6413 2.13778C32.6008 2.04244 32.5419 1.95443 32.4684 1.88476C32.3948 1.81509 32.3102 1.75643 32.2146 1.71242C32.0196 1.62809 31.7916 1.62809 31.6003 1.71242C31.5047 1.75276 31.4201 1.81143 31.3502 1.88476C31.2803 1.9581 31.2178 2.04244 31.1773 2.13778C31.1332 2.23678 31.1111 2.33945 31.1111 2.45312C31.1111 2.5668 31.1332 2.66947 31.1773 2.76481C31.2214 2.86014 31.2803 2.94081 31.3538 3.01048H31.3502Z" fill="#1C3687"/>
    <path d="M33.0347 3.01046C33.1083 3.08013 33.1929 3.13513 33.2885 3.17547C33.3842 3.2158 33.4908 3.2378 33.6012 3.2378C33.7115 3.2378 33.8109 3.2158 33.9065 3.17547C34.0021 3.13513 34.0831 3.07646 34.1529 3.00679C34.2228 2.93712 34.2817 2.85279 34.3221 2.76111C34.3626 2.66578 34.3847 2.56311 34.3847 2.44943C34.3847 2.33576 34.3626 2.23309 34.3221 2.13775C34.2817 2.04241 34.2265 1.95808 34.1566 1.88474C34.0867 1.8114 34.0021 1.75273 33.9065 1.7124C33.7115 1.62806 33.4798 1.63173 33.2885 1.7124C33.1929 1.75273 33.1046 1.8114 33.0347 1.88474C32.9649 1.95808 32.9023 2.04241 32.8619 2.13775C32.8177 2.23676 32.7957 2.33943 32.7957 2.4531C32.7957 2.56677 32.8177 2.66944 32.8619 2.76478C32.906 2.86012 32.9649 2.94079 33.0384 3.01046H33.0347Z" fill="#1C3687"/>
    <path d="M42.1238 0L39.7145 1.36407L39.5601 2.18544L41.9693 0.821372L42.1238 0Z" fill="#1C3687"/>
    <path d="M49.4251 3.98583C49.4987 4.0555 49.5833 4.1105 49.6752 4.15083C49.7709 4.19117 49.8739 4.21317 49.9805 4.21317C50.0872 4.21317 50.1902 4.19117 50.2895 4.15083C50.3852 4.1105 50.4698 4.0555 50.5433 3.98583C50.6169 3.91616 50.6757 3.83182 50.7162 3.73648C50.7567 3.64114 50.7787 3.53847 50.7787 3.4248C50.7787 3.31113 50.7567 3.20846 50.7162 3.11312C50.6757 3.01778 50.6169 2.92978 50.5433 2.86011C50.4698 2.79044 50.3852 2.73177 50.2895 2.68776C50.0946 2.60343 49.8665 2.60343 49.6752 2.68776C49.5796 2.7281 49.495 2.78677 49.4251 2.86011C49.3552 2.93344 49.2927 3.01778 49.2522 3.11312C49.2081 3.21212 49.186 3.31479 49.186 3.42847C49.186 3.54214 49.2081 3.64481 49.2522 3.74015C49.2964 3.83549 49.3552 3.91616 49.4288 3.98583H49.4251Z" fill="#1C3687"/>
    <path d="M46.0376 9.59615C46.4901 10.0288 47.0896 10.2562 47.8216 10.2708H50.0654C50.7459 10.2708 51.3307 10.0362 51.7978 9.57048C52.2282 9.14146 52.4452 8.62443 52.4452 8.03774V4.83292H50.8709V8.03774C50.8709 8.32742 50.7753 8.5621 50.5803 8.75277C50.4258 8.90678 50.2566 8.98379 50.0617 8.98379H47.9099C47.6009 8.98379 47.3545 8.88478 47.1558 8.6831C46.9572 8.47776 46.8469 8.18441 46.8248 7.81773V4.83292H45.2431V7.68206C45.2431 8.11841 45.1291 8.45943 44.9084 8.68677C44.7135 8.88478 44.4597 8.98012 44.1323 8.98012C43.8233 8.98012 43.5769 8.88111 43.3782 8.67944C43.1539 8.44843 43.0435 8.11108 43.0435 7.67839V4.82925H41.4692V7.67839C41.4692 8.11474 41.3552 8.45209 41.1271 8.6831C40.9322 8.88111 40.6784 8.97645 40.351 8.97645C40.042 8.97645 39.7956 8.87745 39.5969 8.67577C39.3726 8.44476 39.2622 8.10741 39.2622 7.67472V4.82559H37.6879V7.67472C37.6879 8.11108 37.5739 8.45209 37.3532 8.67944C37.1546 8.87745 36.8971 8.97645 36.5697 8.97645H35.7237V5.34261C35.7237 4.75225 35.3632 4.2939 34.6533 3.98955C34.1788 3.78054 33.6344 3.67053 33.0202 3.67053C31.9645 3.6742 31.1222 4.00055 30.5152 4.63491C29.9672 5.22161 29.6876 6.01731 29.6876 7.00369C29.6876 7.9314 29.9782 8.69777 30.5483 9.28447C31.17 9.93716 32.0013 10.2672 33.0128 10.2672H33.9986C33.9581 10.3148 33.8882 10.3809 33.7742 10.4725C33.2519 10.9199 32.5346 11.1472 31.6408 11.1472C30.747 11.1472 30.0702 10.9162 29.5405 10.4615C29.0255 10.0178 28.7644 9.35414 28.7644 8.49243V8.40076H27.385V8.49243C27.385 9.69149 27.7933 10.6522 28.5952 11.3452C29.4301 12.0713 30.4564 12.4379 31.6445 12.4379C32.9245 12.4196 33.8956 12.1263 34.5283 11.5652C35.0579 11.0996 35.3927 10.6632 35.5288 10.2672H36.6801C37.4157 10.2452 38.019 10.0178 38.4751 9.58881C38.9459 10.0398 39.5749 10.2672 40.351 10.2672C41.1271 10.2672 41.7782 10.0398 42.2564 9.58881C42.7272 10.0398 43.3562 10.2672 44.1323 10.2672C44.9084 10.2672 45.5595 10.0398 46.034 9.58881L46.0376 9.59615ZM34.1531 8.98745H33.2372L33.1452 8.98012C32.5567 8.98012 32.1006 8.81511 31.7806 8.48509C31.4385 8.13674 31.2619 7.63805 31.2619 7.00736C31.2619 6.31433 31.4311 5.78263 31.7659 5.43428C32.0601 5.11893 32.4831 4.96126 33.0385 4.96126C33.3696 4.96126 33.6602 5.01626 33.9066 5.1226C34.017 5.17027 34.1494 5.24727 34.1494 5.34628V8.98745H34.1531Z" fill="#1C3687"/>
    <path d="M73.5291 3.88683C73.6027 3.9565 73.6873 4.0115 73.7793 4.05184C73.8749 4.09217 73.9779 4.11417 74.0846 4.11417C74.1912 4.11417 74.2942 4.09217 74.3935 4.05184C74.4892 4.0115 74.5738 3.9565 74.6473 3.88683C74.7209 3.81716 74.7797 3.73282 74.8202 3.63748C74.8607 3.54214 74.8827 3.43947 74.8827 3.3258C74.8827 3.21213 74.8607 3.10946 74.8202 3.01412C74.7797 2.91878 74.7209 2.83078 74.6473 2.76111C74.5738 2.69144 74.4892 2.63277 74.3935 2.58877C74.1986 2.50443 73.9705 2.50443 73.7793 2.58877C73.6836 2.6291 73.599 2.68777 73.5291 2.76111C73.4592 2.83444 73.3967 2.91878 73.3562 3.01412C73.3121 3.11312 73.29 3.2158 73.29 3.32947C73.29 3.44314 73.3121 3.54581 73.3562 3.64115C73.4004 3.73649 73.4592 3.81716 73.5328 3.88683H73.5291Z" fill="#1C3687"/>
    <path d="M75.2174 3.88686C75.2909 3.95653 75.3755 4.01154 75.4712 4.05187C75.5668 4.09221 75.6735 4.11421 75.7838 4.11421C75.8942 4.11421 75.9935 4.09221 76.0891 4.05187C76.1848 4.01154 76.2657 3.95287 76.3356 3.8832C76.4055 3.81353 76.4643 3.72919 76.5048 3.63752C76.5452 3.54218 76.5673 3.43951 76.5673 3.32584C76.5673 3.21216 76.5452 3.10949 76.5048 3.01416C76.4643 2.91882 76.4091 2.83448 76.3392 2.76114C76.2694 2.68781 76.1848 2.62914 76.0891 2.5888C75.8942 2.50446 75.6624 2.50813 75.4712 2.5888C75.3755 2.62914 75.2873 2.68781 75.2174 2.76114C75.1475 2.83448 75.0849 2.91882 75.0445 3.01416C75.0003 3.11316 74.9783 3.21583 74.9783 3.3295C74.9783 3.44318 75.0003 3.54585 75.0445 3.64119C75.0886 3.73652 75.1475 3.81719 75.221 3.88686H75.2174Z" fill="#1C3687"/>
    <path d="M80.6283 12.6653C80.7349 12.6653 80.8379 12.6433 80.9372 12.6029C81.0329 12.5626 81.1175 12.5076 81.191 12.4379C81.2646 12.3682 81.3235 12.2839 81.3639 12.1886C81.4044 12.0932 81.4264 11.9906 81.4264 11.8769C81.4264 11.7632 81.4044 11.6605 81.3639 11.5652C81.3235 11.4699 81.2646 11.3819 81.191 11.3122C81.1175 11.2425 81.0329 11.1839 80.9372 11.1399C80.7423 11.0555 80.5142 11.0555 80.323 11.1399C80.2273 11.1802 80.1427 11.2389 80.0728 11.3122C80.0029 11.3855 79.9404 11.4699 79.9 11.5652C79.8558 11.6642 79.8337 11.7669 79.8337 11.8806C79.8337 11.9942 79.8558 12.0969 79.9 12.1922C79.9441 12.2876 80.0029 12.3682 80.0765 12.4379C80.1501 12.5076 80.2347 12.5626 80.3266 12.6029C80.4223 12.6433 80.5253 12.6653 80.6319 12.6653H80.6283Z" fill="#1C3687"/>
    <path d="M58.2126 14.2823L58.2825 14.319L59.088 13.2776L58.9961 13.2263C58.5657 12.9916 58.2935 12.6799 58.1795 12.3022C58.139 12.1592 58.1169 12.0126 58.1169 11.8622C58.1169 11.7229 58.1353 11.5799 58.1721 11.4332C58.2494 11.1399 58.3928 10.8942 58.5951 10.6962C58.8857 10.4138 59.2682 10.2158 59.7354 10.2158H64.9953C65.2271 10.2158 65.4588 10.1865 65.6795 10.1205C66.0915 9.99213 66.4446 9.77946 66.7278 9.48978C66.7609 9.45677 66.7867 9.42744 66.8087 9.40177C67.3973 9.97747 68.1881 10.2708 69.1629 10.2708H73.2053C73.9299 10.2415 74.5221 10.0141 74.9672 9.59245C75.3865 9.99213 75.9346 10.1461 76.6004 10.1901H84.6374C85.0421 10.1901 85.454 10.1205 85.8145 9.9298C86.0352 9.81246 86.2338 9.66578 86.4067 9.48978C86.4398 9.45677 86.4656 9.42744 86.4876 9.40177C87.0761 9.97747 87.867 10.2708 88.8417 10.2708C89.8165 10.2708 90.6919 9.94447 91.3209 9.30277C91.8947 8.71607 92.189 7.94604 92.189 7.00733C92.189 6.01361 91.9094 5.21424 91.3614 4.63121C90.7544 3.99318 89.9121 3.66683 88.8491 3.66683C87.7861 3.66683 86.9548 3.99318 86.3442 4.63855C85.7961 5.22157 85.5166 6.01728 85.5166 7.00733V7.67836C85.5166 8.11471 85.4025 8.45573 85.1818 8.68307C84.9906 8.87741 84.6853 8.97642 84.277 8.97642H84.0526C84.0342 8.84441 84.0121 8.6574 83.9864 8.41173C83.8209 6.91199 83.5781 5.8486 83.2654 5.24724C82.7137 4.19852 81.7389 3.66317 80.378 3.66317C79.8961 3.66317 79.4437 3.7365 79.0354 3.88318C78.6197 4.03352 78.2556 4.25719 77.9577 4.54687C77.8068 4.68988 77.6707 4.85489 77.553 5.03456C77.4427 5.21057 77.3287 5.44892 77.2146 5.74593L77.1779 5.84494L78.7117 6.16028L78.7375 6.08695C78.8073 5.89261 78.8772 5.74226 78.9471 5.63959C79.0096 5.54426 79.0795 5.45258 79.1605 5.37191C79.3002 5.23624 79.4731 5.13357 79.6717 5.0639C79.8777 4.99056 80.1131 4.95389 80.378 4.95389C81.1063 4.95389 81.6139 5.30591 81.9229 6.03195C82.1178 6.4903 82.2833 7.33001 82.4194 8.5254C82.4415 8.73074 82.4599 8.88108 82.4709 8.97642L76.8395 8.96908C76.5305 8.96908 76.284 8.87008 76.0854 8.6684C75.8868 8.46306 75.7764 8.16971 75.7544 7.80303V4.81822H74.1727V7.66736C74.1727 8.10371 74.0587 8.44473 73.838 8.67207C73.643 8.87008 73.3892 8.96542 73.0618 8.96542H71.94C72.3115 8.49606 72.5027 7.83236 72.5027 6.99266C72.5027 5.99894 72.2232 5.19957 71.6751 4.61654C71.0682 3.97851 70.2259 3.65217 69.1629 3.65217C68.0998 3.65217 67.2685 3.97851 66.6579 4.62388C66.1099 5.20691 65.8303 6.00261 65.8303 6.99266V7.66369C65.8303 8.10004 65.7163 8.44106 65.4956 8.6684C65.3043 8.86275 64.999 8.96175 64.5907 8.96175H63.5718C63.9434 8.56207 64.2339 7.98637 64.4326 7.24567C64.5466 6.83498 64.6054 6.45363 64.6054 6.11262C64.6054 5.53325 64.4473 5.03456 64.142 4.63855C63.8293 4.23153 63.3769 3.94551 62.7994 3.78784C62.472 3.69617 62.1116 3.6485 61.7217 3.6485H60.7911C60.4048 3.6485 60.0444 3.69617 59.7207 3.78784C59.1432 3.94185 58.6908 4.22786 58.3707 4.63855C58.0618 5.03456 57.9036 5.53325 57.9036 6.11262C57.9036 6.45363 57.9625 6.83498 58.0765 7.24567C58.2861 8.01204 58.5951 8.60974 58.9997 9.02409C58.4811 9.11576 57.9808 9.39444 57.5137 9.84913C57.1459 10.2121 56.8921 10.6485 56.767 11.1472C56.7045 11.3782 56.675 11.6092 56.675 11.8402C56.675 12.0896 56.7118 12.3389 56.7817 12.5809C56.9877 13.2886 57.4696 13.8533 58.2163 14.2603L58.2126 14.2823ZM87.6021 5.42692C87.8927 5.11524 88.3121 4.96123 88.8491 4.96123C89.3861 4.96123 89.8165 5.1189 90.1071 5.43058C90.4418 5.77527 90.611 6.30696 90.611 7.01099C90.611 7.64902 90.4381 8.15138 90.0923 8.49973C89.7797 8.81874 89.3567 8.98009 88.8381 8.98009C88.3194 8.98009 87.9222 8.81508 87.6058 8.48506C87.2637 8.13671 87.0872 7.63802 87.0872 7.00733C87.0872 6.31429 87.2601 5.7826 87.5985 5.42692H87.6021ZM67.9196 5.42692C68.2102 5.11524 68.6295 4.96123 69.1665 4.96123C69.7036 4.96123 70.1339 5.1189 70.4245 5.43058C70.7592 5.77527 70.9284 6.30696 70.9284 7.01099C70.9284 7.64902 70.7556 8.15138 70.4098 8.49973C70.0971 8.81874 69.6741 8.98009 69.1555 8.98009C68.6369 8.98009 68.2396 8.81508 67.9233 8.48506C67.5812 8.13671 67.4046 7.63802 67.4046 7.00733C67.4046 6.31429 67.5775 5.7826 67.9159 5.42692H67.9196ZM59.7096 5.34991C59.8273 5.19957 60.0002 5.08957 60.2246 5.02723C60.3864 4.98323 60.5814 4.96123 60.7947 4.96123H61.7253C61.9387 4.96123 62.1336 4.98323 62.3028 5.02723C62.5272 5.08957 62.7001 5.19957 62.8178 5.34991C62.9649 5.54059 63.0385 5.80093 63.0385 6.13095C63.0385 6.38396 62.9944 6.66998 62.9134 6.98532C62.7222 7.67102 62.3654 8.22472 61.8578 8.62807C61.6628 8.78574 61.4605 8.90675 61.2619 8.98742C61.0669 8.90675 60.8683 8.78574 60.6734 8.62807C60.1657 8.22472 59.809 7.67469 59.6177 6.98899C59.5331 6.67731 59.4926 6.38763 59.4926 6.13462C59.4926 5.8046 59.5662 5.54059 59.7133 5.35358L59.7096 5.34991Z" fill="#1C3687"/>
    <path d="M1.95696 19.3903C1.8834 19.3609 1.80983 19.3463 1.72891 19.3463C1.64799 19.3463 1.57442 19.3609 1.50453 19.3903C1.43464 19.4196 1.37211 19.4636 1.31694 19.5149C1.26176 19.5663 1.2213 19.6323 1.1882 19.7019C1.15509 19.7716 1.14038 19.8523 1.14038 19.9329C1.14038 20.0136 1.15509 20.0906 1.1882 20.1603C1.2213 20.23 1.26544 20.2923 1.31694 20.3436C1.37211 20.395 1.43097 20.4353 1.50453 20.4683C1.5781 20.5013 1.64799 20.5123 1.72891 20.5123C1.80983 20.5123 1.8834 20.4976 1.95696 20.4683C2.03053 20.439 2.09306 20.395 2.14456 20.3436C2.19973 20.2923 2.24019 20.23 2.26962 20.1603C2.29904 20.0906 2.31376 20.0136 2.31376 19.9329C2.31376 19.8523 2.29904 19.7753 2.26962 19.7019C2.24019 19.6286 2.19605 19.5663 2.14456 19.5149C2.09306 19.4636 2.02685 19.4196 1.95696 19.3903Z" fill="#40AF7B"/>
    <path d="M3.36933 19.3903C3.29944 19.3609 3.22588 19.3463 3.14496 19.3463C3.06403 19.3463 2.98679 19.3609 2.91322 19.3903C2.83966 19.4196 2.77713 19.4636 2.72563 19.5149C2.67413 19.5663 2.62999 19.6323 2.59689 19.7019C2.56379 19.7716 2.54907 19.8523 2.54907 19.9329C2.54907 20.0136 2.56379 20.0906 2.59689 20.1603C2.62999 20.23 2.67413 20.2923 2.72563 20.3436C2.7808 20.395 2.84334 20.4353 2.91322 20.4683C2.98311 20.5013 3.06403 20.5123 3.14496 20.5123C3.22588 20.5123 3.29944 20.4976 3.36933 20.4683C3.43922 20.439 3.50175 20.395 3.55325 20.3436C3.60474 20.2923 3.6452 20.23 3.67831 20.1603C3.70773 20.0906 3.72245 20.0136 3.72245 19.9329C3.72245 19.8523 3.70773 19.7753 3.67831 19.7019C3.64888 19.6286 3.60474 19.5663 3.55325 19.5149C3.50175 19.4636 3.43922 19.4196 3.36933 19.3903Z" fill="#40AF7B"/>
    <path d="M20.8045 28.2017C20.834 28.132 20.8487 28.055 20.8487 27.9743C20.8487 27.8937 20.834 27.8167 20.8045 27.7433C20.7751 27.67 20.731 27.6076 20.6795 27.5563C20.628 27.505 20.5654 27.461 20.4956 27.4316C20.4257 27.4023 20.3521 27.3876 20.2712 27.3876C20.1903 27.3876 20.113 27.4023 20.0394 27.4316C19.9659 27.461 19.9033 27.505 19.8519 27.5563C19.8004 27.6076 19.7562 27.6736 19.7231 27.7433C19.69 27.813 19.6753 27.8937 19.6753 27.9743C19.6753 28.055 19.69 28.132 19.7231 28.2017C19.7562 28.2713 19.8004 28.3337 19.8519 28.385C19.9033 28.4364 19.9696 28.4767 20.0394 28.5097C20.113 28.539 20.1903 28.5537 20.2712 28.5537C20.3521 28.5537 20.4257 28.539 20.4956 28.5097C20.5654 28.4804 20.628 28.4364 20.6795 28.385C20.731 28.3337 20.7714 28.2713 20.8045 28.2017Z" fill="#40AF7B"/>
    <path d="M18.6342 28.506C18.7041 28.5354 18.7776 28.55 18.8585 28.55C18.9395 28.55 19.013 28.5354 19.0866 28.506C19.1602 28.4767 19.2227 28.4327 19.2742 28.3814C19.3257 28.33 19.3698 28.2677 19.3993 28.198C19.4287 28.1283 19.4434 28.0513 19.4434 27.9707C19.4434 27.89 19.4287 27.813 19.3993 27.7397C19.3698 27.6663 19.3257 27.604 19.2742 27.5526C19.2227 27.5013 19.1565 27.4573 19.0866 27.428C19.013 27.3986 18.9395 27.384 18.8585 27.384C18.7776 27.384 18.7041 27.3986 18.6342 27.428C18.5643 27.4573 18.5018 27.5013 18.4466 27.5526C18.3914 27.604 18.3509 27.67 18.3178 27.7397C18.2847 27.8093 18.27 27.89 18.27 27.9707C18.27 28.0513 18.2847 28.1283 18.3178 28.198C18.3509 28.2677 18.3951 28.33 18.4466 28.3814C18.4981 28.4327 18.5606 28.473 18.6342 28.506Z" fill="#40AF7B"/>
    <path d="M23.7618 24.8025C23.7618 25.0922 23.6624 25.3342 23.4638 25.5286C23.2983 25.6936 23.1107 25.7742 22.9047 25.7742H21.2201C20.9148 25.7742 20.661 25.6716 20.4587 25.4699C20.2563 25.2609 20.1497 24.9785 20.1313 24.6229V22.3201H19.1823V24.5128C19.1823 24.9272 19.0719 25.2499 18.8476 25.4809C18.6489 25.6826 18.3915 25.7816 18.0714 25.7816H5.76019C5.45122 25.7816 5.19741 25.6789 4.99511 25.4772C4.77073 25.2499 4.66038 24.9272 4.66038 24.5165V22.5731C4.66038 22.1587 4.39922 21.8361 3.88058 21.6124C3.5054 21.4474 3.08239 21.3667 2.60789 21.3667H2.59318C1.76189 21.3667 1.11451 21.6197 0.643685 22.1147C0.217003 22.5694 0.00366211 23.1855 0.00366211 23.9628C0.00366211 24.9895 0.389883 25.7266 1.16232 26.1703C1.48234 26.3573 1.83177 26.4636 2.21432 26.4856C2.27317 26.4856 2.32834 26.4893 2.3872 26.4893C2.70353 26.4893 3.00515 26.4306 3.29206 26.3169C3.61942 26.1923 3.8953 26.0053 4.12335 25.7596C4.16013 25.8072 4.2006 25.8512 4.24106 25.8952C4.54635 26.2106 4.93258 26.3976 5.38868 26.4636V26.4966H18.1156C18.7372 26.4856 19.2375 26.2913 19.62 25.8989L19.6641 25.8549L19.7009 25.8916C20.0871 26.2876 20.5874 26.4893 21.209 26.4929H21.2237H22.9084C23.4307 26.4929 23.8684 26.3169 24.2215 25.9613C24.5452 25.6386 24.7071 25.2572 24.7071 24.8135V22.3274H23.7654V24.8135L23.7618 24.8025ZM3.71874 24.5092C3.63782 25.0995 3.34723 25.4919 2.85802 25.6862C2.70721 25.7486 2.55272 25.7779 2.39087 25.7779C2.35777 25.7779 2.32467 25.7779 2.29524 25.7742C2.10029 25.7632 1.91637 25.7082 1.73982 25.6092C1.21014 25.3049 0.948984 24.7549 0.948984 23.9555C0.948984 23.3248 1.10347 22.8444 1.41613 22.5144C1.69936 22.2137 2.09293 22.0634 2.59686 22.0634H2.61157C2.91319 22.0634 3.17803 22.1147 3.40976 22.2137C3.61943 22.3017 3.72242 22.4227 3.72242 22.5694V24.5128L3.71874 24.5092Z" fill="#40AF7B"/>
    <path d="M23.4014 27.5857C23.3462 27.5307 23.2837 27.4903 23.2138 27.461C23.1439 27.4317 23.0667 27.417 22.9857 27.417C22.9048 27.417 22.8313 27.4317 22.7614 27.461C22.6915 27.4903 22.6289 27.5343 22.5738 27.5857C22.5186 27.637 22.4781 27.703 22.445 27.7727C22.4119 27.8423 22.3972 27.923 22.3972 28.0037C22.3972 28.0844 22.4119 28.1614 22.445 28.231C22.4781 28.3007 22.5223 28.363 22.5738 28.4144C22.6253 28.4657 22.6878 28.506 22.7614 28.539C22.8313 28.5684 22.9048 28.583 22.9857 28.583C23.0667 28.583 23.1402 28.5684 23.2138 28.539C23.2874 28.5097 23.3499 28.4657 23.4014 28.4144C23.4529 28.363 23.497 28.3007 23.5265 28.231C23.5559 28.1614 23.5706 28.0844 23.5706 28.0037C23.5706 27.923 23.5559 27.846 23.5265 27.7727C23.497 27.6993 23.4529 27.637 23.4014 27.5857Z" fill="#40AF7B"/>
    <path d="M30.0736 28.539C30.1435 28.5684 30.2171 28.583 30.298 28.583C30.3789 28.583 30.4525 28.5684 30.5261 28.539C30.5996 28.5097 30.6622 28.4657 30.7136 28.4144C30.7651 28.363 30.8093 28.3007 30.8387 28.231C30.8681 28.1614 30.8828 28.0844 30.8828 28.0037C30.8828 27.923 30.8681 27.846 30.8387 27.7727C30.8093 27.6993 30.7651 27.637 30.7136 27.5857C30.6622 27.5343 30.5959 27.4903 30.5261 27.461C30.4562 27.4317 30.3789 27.417 30.298 27.417C30.2171 27.417 30.1435 27.4317 30.0736 27.461C30.0037 27.4903 29.9412 27.5343 29.886 27.5857C29.8309 27.637 29.7904 27.703 29.7573 27.7727C29.7242 27.8423 29.7095 27.923 29.7095 28.0037C29.7095 28.0844 29.7242 28.1614 29.7573 28.231C29.7904 28.3007 29.8345 28.363 29.886 28.4144C29.9375 28.4657 30.0001 28.506 30.0736 28.539Z" fill="#40AF7B"/>
    <path d="M35.6354 20.252C35.5582 20.252 35.4809 20.2666 35.411 20.296C35.3411 20.3253 35.2786 20.3693 35.2234 20.4206C35.1683 20.472 35.1278 20.538 35.0947 20.6076C35.0616 20.6773 35.0469 20.758 35.0469 20.8386C35.0469 20.9193 35.0616 20.9963 35.0947 21.066C35.1278 21.1357 35.1719 21.198 35.2234 21.2493C35.2749 21.3007 35.3375 21.341 35.411 21.374C35.4809 21.4033 35.5545 21.418 35.6354 21.418C35.7163 21.418 35.7899 21.4033 35.8635 21.374C35.937 21.3447 35.9996 21.3043 36.0511 21.2493C36.1025 21.1943 36.1467 21.1357 36.1761 21.066C36.2055 20.9963 36.2203 20.9193 36.2203 20.8386C36.2203 20.758 36.2055 20.681 36.1761 20.6076C36.1467 20.5343 36.1025 20.472 36.0511 20.4206C35.9996 20.3693 35.9333 20.3253 35.8635 20.296C35.7936 20.2666 35.7163 20.252 35.6354 20.252Z" fill="#40AF7B"/>
    <path d="M36.8713 20.615C36.8382 20.6883 36.8235 20.7653 36.8235 20.846C36.8235 20.9266 36.8382 21.0036 36.8713 21.0733C36.9044 21.143 36.9485 21.2053 37 21.2567C37.0515 21.308 37.1177 21.3483 37.1876 21.3813C37.2612 21.4107 37.3384 21.4253 37.4194 21.4253C37.5003 21.4253 37.5739 21.4107 37.6437 21.3813C37.7136 21.352 37.7762 21.3117 37.8277 21.2567C37.8792 21.2017 37.9196 21.143 37.9527 21.0733C37.9821 21.0036 37.9969 20.9266 37.9969 20.846C37.9969 20.7653 37.9821 20.6883 37.9527 20.615C37.9233 20.5416 37.8792 20.4793 37.8277 20.428C37.7762 20.3766 37.7136 20.3326 37.6437 20.3033C37.5739 20.2739 37.5003 20.2593 37.4194 20.2593C37.3384 20.2593 37.2612 20.2739 37.1876 20.3033C37.1141 20.3326 37.0515 20.3766 37 20.428C36.9485 20.4793 36.9044 20.5453 36.8713 20.615Z" fill="#40AF7B"/>
    <path d="M36.9412 19.0382C36.886 18.9832 36.8235 18.9429 36.7536 18.9136C36.6837 18.8842 36.6065 18.8696 36.5255 18.8696C36.4446 18.8696 36.3711 18.8842 36.3012 18.9136C36.2313 18.9429 36.1687 18.9869 36.1136 19.0382C36.0584 19.0896 36.0179 19.1556 35.9848 19.2253C35.9517 19.2949 35.937 19.3756 35.937 19.4563C35.937 19.5369 35.9517 19.6139 35.9848 19.6836C36.0179 19.7533 36.0621 19.8156 36.1136 19.8669C36.1651 19.9183 36.2276 19.9586 36.3012 19.9916C36.3711 20.021 36.4446 20.0356 36.5255 20.0356C36.6065 20.0356 36.68 20.021 36.7536 19.9916C36.8272 19.9623 36.8897 19.922 36.9412 19.8669C36.9927 19.8119 37.0368 19.7533 37.0662 19.6836C37.0957 19.6139 37.1104 19.5369 37.1104 19.4563C37.1104 19.3756 37.0957 19.2986 37.0662 19.2253C37.0368 19.1519 36.9927 19.0896 36.9412 19.0382Z" fill="#40AF7B"/>
    <path d="M39.2512 24.5092C39.2512 24.9235 39.1408 25.2462 38.9164 25.4772C38.7178 25.6789 38.4603 25.7779 38.1403 25.7779C37.8203 25.7779 37.5812 25.6752 37.3789 25.4735C37.1545 25.2462 37.0442 24.9235 37.0442 24.5128V22.3201H36.1025V24.5128C36.1025 24.9272 35.9885 25.2499 35.7641 25.4809C35.5655 25.6826 35.308 25.7816 34.988 25.7816C34.668 25.7816 34.4289 25.6789 34.2266 25.4772C34.0022 25.2499 33.8919 24.9272 33.8919 24.5165V22.3237H32.9502V24.5165C32.9502 24.9309 32.8399 25.2535 32.6155 25.4845C32.4169 25.6826 32.1594 25.7816 31.8431 25.7852C31.5415 25.7852 31.2913 25.6826 31.0927 25.4809C30.8904 25.2719 30.7837 24.9895 30.7653 24.6338V22.3311H29.8163V24.5238C29.8163 24.9382 29.706 25.2609 29.4816 25.4919C29.283 25.6936 29.0255 25.7926 28.7055 25.7926H27.5799C27.3703 25.7926 27.1864 25.7119 27.0208 25.5469C26.8222 25.3525 26.7229 25.1105 26.7229 24.8208V20.2923H25.7812V24.8208C25.7812 25.2645 25.9431 25.6496 26.2668 25.9686C26.6236 26.3243 27.0613 26.5003 27.5799 26.5003H28.7423C29.3639 26.4893 29.8642 26.2949 30.2467 25.9026L30.2908 25.8586L30.3276 25.8952C30.7138 26.2913 31.2141 26.4929 31.8357 26.4966C31.8357 26.4966 31.8394 26.4966 31.8431 26.4966C31.8468 26.4966 31.8468 26.4966 31.8504 26.4966H32.2109V26.4673C32.6781 26.4013 33.068 26.2179 33.3733 25.9026L33.4174 25.8549L33.4615 25.8989C33.8477 26.2986 34.359 26.5003 34.988 26.5003C35.617 26.5003 36.1393 26.3022 36.5292 25.9026L36.5734 25.8549L36.6175 25.8989C37.0037 26.2986 37.515 26.5003 38.144 26.5003C38.773 26.5003 39.2953 26.3022 39.6852 25.9026C40.031 25.5469 40.2038 25.0885 40.2038 24.5238V22.3311H39.2548V24.5238L39.2512 24.5092Z" fill="#40AF7B"/>
    <path d="M49.0353 21.3887C48.9655 21.3593 48.8919 21.3447 48.811 21.3447C48.73 21.3447 48.6528 21.3593 48.5792 21.3887C48.5057 21.418 48.4431 21.462 48.3916 21.5133C48.3401 21.5647 48.296 21.6307 48.2629 21.7003C48.2298 21.77 48.2151 21.8507 48.2151 21.9314C48.2151 22.012 48.2298 22.089 48.2629 22.1587C48.296 22.2284 48.3401 22.2907 48.3916 22.342C48.4468 22.3934 48.5094 22.4337 48.5792 22.4667C48.6491 22.4997 48.73 22.5107 48.811 22.5107C48.8919 22.5107 48.9655 22.4961 49.0353 22.4667C49.1052 22.4374 49.1678 22.3934 49.2193 22.342C49.2708 22.2907 49.3112 22.2284 49.3443 22.1587C49.3737 22.089 49.3885 22.012 49.3885 21.9314C49.3885 21.8507 49.3737 21.7737 49.3443 21.7003C49.3149 21.627 49.2708 21.5647 49.2193 21.5133C49.1678 21.462 49.1052 21.418 49.0353 21.3887Z" fill="#40AF7B"/>
    <path d="M52.0294 22.3164H51.0877V23.8895C51.0877 24.5202 50.9333 25.0005 50.6206 25.3305C50.3374 25.6276 49.9438 25.7779 49.4399 25.7779H46.4494C45.9455 25.7779 45.5519 25.6276 45.2687 25.3305C44.956 25.0005 44.8015 24.5202 44.8015 23.8895C44.8015 23.7208 44.8126 23.5668 44.8383 23.4275C44.8678 23.2845 44.9082 23.1524 44.956 23.0314L44.2167 22.8224C44.1468 22.9838 44.099 23.1524 44.0659 23.3321C44.0328 23.5155 44.0181 23.7025 44.0181 23.8895C44.0181 24.6669 44.2314 25.2829 44.6581 25.7376C45.1289 26.2363 45.78 26.4856 46.6076 26.4856H49.4362C50.2675 26.4856 50.9149 26.2363 51.3857 25.7376C51.8124 25.2829 52.0257 24.6669 52.0257 23.8895V22.3164H52.0294Z" fill="#40AF7B"/>
    <path d="M47.6191 21.3887C47.5455 21.3593 47.4719 21.3447 47.391 21.3447C47.3101 21.3447 47.2365 21.3593 47.1666 21.3887C47.0968 21.418 47.0342 21.462 46.979 21.5133C46.9239 21.5647 46.8834 21.6307 46.8503 21.7003C46.8172 21.77 46.8025 21.8507 46.8025 21.9314C46.8025 22.012 46.8172 22.089 46.8503 22.1587C46.8834 22.2284 46.9276 22.2907 46.979 22.342C47.0342 22.3934 47.0931 22.4337 47.1666 22.4667C47.2402 22.4997 47.3101 22.5107 47.391 22.5107C47.4719 22.5107 47.5455 22.4961 47.6191 22.4667C47.6926 22.4374 47.7552 22.3934 47.8067 22.342C47.8618 22.2907 47.9023 22.2284 47.9317 22.1587C47.9612 22.089 47.9759 22.012 47.9759 21.9314C47.9759 21.8507 47.9612 21.7737 47.9317 21.7003C47.9023 21.627 47.8582 21.5647 47.8067 21.5133C47.7552 21.462 47.689 21.418 47.6191 21.3887Z" fill="#40AF7B"/>
    <path d="M77.3876 23.3688C76.9168 23.0424 76.2878 22.8811 75.5006 22.8811H71.6274V22.7308C71.6458 22.1037 72.0578 21.6527 72.8596 21.3704C73.3231 21.2127 74.0882 21.0844 75.1549 20.989C75.6478 20.945 75.9899 20.9083 76.1848 20.8753L75.9862 20.186C75.817 20.2153 75.5043 20.2483 75.0482 20.2886C73.7314 20.4023 72.7861 20.571 72.2123 20.7947C71.2191 21.176 70.7115 21.8177 70.6821 22.7161V23.5851H75.5006C76.045 23.5851 76.4607 23.6841 76.7439 23.8821C77.0124 24.0692 77.1485 24.3405 77.1485 24.6999C77.1485 25.0262 77.0087 25.2829 76.7329 25.4662C76.4276 25.6716 76.0193 25.7706 75.508 25.7706H54.9022C54.6925 25.7706 54.5086 25.6899 54.3431 25.5249C54.1445 25.3306 54.0452 25.0885 54.0452 24.7989V20.2703H53.1035V24.7989C53.1035 25.2425 53.2654 25.6276 53.5891 25.9466C53.9458 26.3023 54.3836 26.4783 54.9022 26.4783H75.508C76.2584 26.4783 76.8763 26.3133 77.3619 25.9833C77.8474 25.6532 78.0902 25.2242 78.0902 24.6925C78.0902 24.1315 77.8548 23.6878 77.3839 23.3615L77.3876 23.3688Z" fill="#40AF7B"/>
    <path d="M80.0801 20.274H79.1384V26.1299H80.0801V20.274Z" fill="#40AF7B"/>
    <path d="M83.7584 26.4856H84.1998V26.4563C84.6669 26.3903 85.0568 26.2069 85.3621 25.8916L85.4062 25.8439L85.4504 25.8879C85.8366 26.2876 86.3479 26.4893 86.9769 26.4893C87.6059 26.4893 88.1282 26.2913 88.5181 25.8916L88.5622 25.8439L88.6064 25.8879C88.9926 26.2876 89.5039 26.4893 90.1328 26.4893C90.7618 26.4893 91.2842 26.2913 91.6741 25.8916C92.0198 25.5359 92.1927 25.0775 92.1927 24.5128V22.3201H91.2437V24.5128C91.2437 24.9272 91.1333 25.2499 90.909 25.4809C90.7103 25.6826 90.4529 25.7816 90.1328 25.7816C89.8128 25.7816 89.5737 25.6789 89.3714 25.4772C89.1471 25.2499 89.0367 24.9272 89.0367 24.5165V22.3237H88.0951V24.5165C88.0951 24.9309 87.981 25.2535 87.7567 25.4846C87.558 25.6862 87.3006 25.7852 86.9806 25.7852C86.6605 25.7852 86.4214 25.6826 86.2191 25.4809C85.9948 25.2535 85.8844 24.9309 85.8844 24.5202V22.3274H84.9428V24.5202C84.9428 24.9345 84.8324 25.2572 84.6081 25.4882C84.4094 25.6862 84.1519 25.7852 83.8393 25.7889C83.5377 25.7889 83.2875 25.6862 83.0889 25.4846C82.894 25.2829 82.7836 25.0152 82.7615 24.6742V22.3311H81.8199V25.7266C81.8273 25.8072 81.8309 25.8879 81.8309 25.9686C81.8309 26.4453 81.7279 26.8743 81.5256 27.252C81.4374 27.417 81.3086 27.5967 81.1468 27.7873C80.9923 27.9743 80.8047 28.1687 80.5803 28.374L81.2056 28.814C81.4484 28.5904 81.6617 28.374 81.8346 28.165C82.0259 27.9377 82.1767 27.7213 82.2871 27.5086C82.4967 27.12 82.6438 26.6873 82.7358 26.2179C83.0301 26.3903 83.3721 26.4819 83.7657 26.4966L83.7584 26.4856Z" fill="#40AF7B"/>
    <path d="M88.8567 20.615C88.8236 20.6883 88.8088 20.7653 88.8088 20.846C88.8088 20.9266 88.8236 21.0036 88.8567 21.0733C88.8898 21.143 88.9339 21.2053 88.9854 21.2567C89.0369 21.308 89.1031 21.3483 89.173 21.3813C89.2466 21.4107 89.3238 21.4253 89.4047 21.4253C89.4856 21.4253 89.5592 21.4107 89.6291 21.3813C89.699 21.352 89.7615 21.3117 89.813 21.2567C89.8645 21.2053 89.905 21.143 89.9381 21.0733C89.9675 21.0036 89.9822 20.9266 89.9822 20.846C89.9822 20.7653 89.9675 20.6883 89.9381 20.615C89.9086 20.5416 89.8645 20.4793 89.813 20.428C89.7615 20.3729 89.699 20.3326 89.6291 20.3033C89.5592 20.2739 89.4856 20.2593 89.4047 20.2593C89.3238 20.2593 89.2466 20.2739 89.173 20.3033C89.0994 20.3326 89.0369 20.3766 88.9854 20.428C88.9339 20.4793 88.8898 20.5453 88.8567 20.615Z" fill="#40AF7B"/>
    <path d="M87.6208 20.252C87.5435 20.252 87.4663 20.2666 87.3964 20.296C87.3265 20.3253 87.264 20.3693 87.2088 20.4206C87.1536 20.472 87.1132 20.538 87.08 20.6076C87.0469 20.6773 87.0322 20.758 87.0322 20.8386C87.0322 20.9193 87.0469 20.9963 87.08 21.066C87.1132 21.1357 87.1573 21.198 87.2088 21.2493C87.2603 21.3007 87.3228 21.341 87.3964 21.374C87.4663 21.4033 87.5398 21.418 87.6208 21.418C87.7017 21.418 87.7752 21.4033 87.8488 21.374C87.9224 21.3447 87.9849 21.3043 88.0364 21.2493C88.0879 21.1943 88.132 21.1357 88.1615 21.066C88.1909 20.9963 88.2056 20.9193 88.2056 20.8386C88.2056 20.758 88.1909 20.681 88.1615 20.6076C88.132 20.5343 88.0879 20.472 88.0364 20.4206C87.9849 20.3693 87.9187 20.3253 87.8488 20.296C87.7789 20.2666 87.7017 20.252 87.6208 20.252Z" fill="#40AF7B"/>
    <path d="M88.9265 19.0382C88.8713 18.9832 88.8088 18.9429 88.7389 18.9136C88.669 18.8842 88.5918 18.8696 88.5109 18.8696C88.43 18.8696 88.3564 18.8842 88.2865 18.9136C88.2166 18.9429 88.1541 18.9869 88.1026 19.0382C88.0511 19.0896 88.0069 19.1556 87.9738 19.2253C87.9407 19.2949 87.926 19.3756 87.926 19.4563C87.926 19.5369 87.9407 19.6139 87.9738 19.6836C88.0069 19.7533 88.0511 19.8156 88.1026 19.8669C88.1541 19.9183 88.2203 19.9586 88.2865 19.9916C88.3564 20.021 88.43 20.0356 88.5109 20.0356C88.5918 20.0356 88.6654 20.021 88.7389 19.9916C88.8125 19.9623 88.875 19.922 88.9265 19.8669C88.978 19.8119 89.0222 19.7533 89.0516 19.6836C89.081 19.6139 89.0957 19.5369 89.0957 19.4563C89.0957 19.3756 89.081 19.2986 89.0516 19.2253C89.0222 19.1519 88.978 19.0896 88.9265 19.0382Z" fill="#40AF7B"/>
    <path d="M6.20901 40.7533C6.15751 40.6983 6.09498 40.6579 6.02509 40.6286C5.95521 40.5993 5.88164 40.5846 5.80072 40.5846C5.7198 40.5846 5.64255 40.5993 5.56899 40.6286C5.49542 40.6579 5.43289 40.7019 5.38139 40.7533C5.3299 40.8046 5.28576 40.8706 5.25265 40.9403C5.21955 41.0099 5.20483 41.0906 5.20483 41.1713C5.20483 41.252 5.21955 41.329 5.25265 41.3986C5.28576 41.4683 5.3299 41.5306 5.38139 41.582C5.43289 41.6333 5.4991 41.6736 5.56899 41.7066C5.64255 41.736 5.7198 41.7507 5.80072 41.7507C5.88164 41.7507 5.95521 41.736 6.02509 41.7066C6.09498 41.6773 6.15751 41.6333 6.20901 41.582C6.2605 41.5306 6.30097 41.4683 6.33407 41.3986C6.3635 41.329 6.37821 41.252 6.37821 41.1713C6.37821 41.0906 6.3635 41.0136 6.33407 40.9403C6.30464 40.8669 6.2605 40.8046 6.20901 40.7533Z" fill="#40AF7B"/>
    <path d="M4.80007 40.7533C4.7449 40.6983 4.68237 40.6579 4.61248 40.6286C4.53891 40.5993 4.46535 40.5846 4.38443 40.5846C4.3035 40.5846 4.22994 40.5993 4.16005 40.6286C4.09016 40.6579 4.02763 40.7019 3.97246 40.7533C3.91728 40.8046 3.87682 40.8706 3.84372 40.9403C3.81061 41.0099 3.7959 41.0906 3.7959 41.1713C3.7959 41.252 3.81061 41.329 3.84372 41.3986C3.87682 41.4683 3.92096 41.5306 3.97246 41.582C4.02395 41.6333 4.08648 41.6736 4.16005 41.7066C4.22994 41.736 4.3035 41.7507 4.38443 41.7507C4.46535 41.7507 4.53891 41.736 4.61248 41.7066C4.68605 41.6773 4.74858 41.6333 4.80007 41.582C4.85157 41.5306 4.89571 41.4683 4.92513 41.3986C4.95456 41.329 4.96927 41.252 4.96927 41.1713C4.96927 41.0906 4.95456 41.0136 4.92513 40.9403C4.89571 40.8669 4.85157 40.8046 4.80007 40.7533Z" fill="#40AF7B"/>
    <path d="M8.80227 32.2389C8.7471 32.1839 8.68456 32.1435 8.61468 32.1142C8.54479 32.0849 8.46754 32.0702 8.38662 32.0702C8.3057 32.0702 8.23213 32.0849 8.16225 32.1142C8.09236 32.1435 8.02983 32.1875 7.97465 32.2389C7.91948 32.2902 7.87902 32.3562 7.84591 32.4259C7.81281 32.4955 7.7981 32.5762 7.7981 32.6569C7.7981 32.7376 7.81281 32.8146 7.84591 32.8842C7.87902 32.9539 7.92316 33.0162 7.97465 33.0676C8.02615 33.1189 8.08868 33.1592 8.16225 33.1922C8.23213 33.2216 8.3057 33.2362 8.38662 33.2362C8.46754 33.2362 8.54111 33.2216 8.61468 33.1922C8.68824 33.1629 8.75077 33.1226 8.80227 33.0676C8.85377 33.0126 8.89791 32.9539 8.92733 32.8842C8.95676 32.8146 8.97147 32.7376 8.97147 32.6569C8.97147 32.5762 8.95676 32.4992 8.92733 32.4259C8.89791 32.3525 8.85377 32.2902 8.80227 32.2389Z" fill="#40AF7B"/>
    <path d="M9.28764 38.0031C9.28764 38.2928 9.18833 38.5348 8.9897 38.7292C8.82418 38.8942 8.63659 38.9749 8.4306 38.9749H6.74594C6.44064 38.9749 6.18684 38.8722 5.98454 38.6705C5.78223 38.4615 5.67556 38.1792 5.65717 37.8235V35.5207H4.70817V37.7135C4.70817 38.1278 4.59782 38.4505 4.37344 38.6815C4.17482 38.8832 3.91733 38.9822 3.59732 38.9822H3.28099C2.97569 38.9822 2.72189 38.8795 2.51958 38.6778C2.32463 38.4762 2.21428 38.2085 2.19221 37.8675V35.5244H1.25057V38.9199C1.25793 39.0005 1.26161 39.0812 1.26161 39.1619C1.26161 39.6386 1.15861 40.0676 0.956308 40.4453C0.868029 40.6103 0.739289 40.7899 0.577444 40.9806C0.422955 41.1676 0.235362 41.362 0.0109863 41.5673L0.636296 42.0073C0.879064 41.7837 1.0924 41.5673 1.26528 41.3583C1.45656 41.131 1.60737 40.9146 1.71771 40.7019C1.92738 40.3133 2.07451 39.8806 2.16647 39.4112C2.46073 39.5836 2.80281 39.6752 3.19639 39.6899H3.63778C4.25942 39.6789 4.75966 39.4845 5.14221 39.0922L5.18635 39.0482L5.22313 39.0849C5.60935 39.4809 6.1096 39.6826 6.73123 39.6862H6.74594H8.4306C8.95292 39.6862 9.39064 39.5102 9.74375 39.1545C10.0674 38.8318 10.2293 38.4505 10.2293 38.0068V35.5207H9.28764V38.0068V38.0031Z" fill="#40AF7B"/>
    <path d="M8.73239 33.8156C8.69928 33.8889 8.68457 33.9659 8.68457 34.0466C8.68457 34.1273 8.69928 34.2043 8.73239 34.2739C8.76549 34.3436 8.80963 34.4059 8.86113 34.4573C8.91262 34.5086 8.97883 34.549 9.04872 34.582C9.12229 34.6113 9.19953 34.626 9.28045 34.626C9.36138 34.626 9.43494 34.6113 9.50483 34.582C9.57472 34.5526 9.63725 34.5123 9.68874 34.4573C9.74024 34.4023 9.7807 34.3436 9.81381 34.2739C9.84323 34.2043 9.85795 34.1273 9.85795 34.0466C9.85795 33.9659 9.84323 33.8889 9.81381 33.8156C9.78438 33.7422 9.74024 33.6799 9.68874 33.6286C9.63725 33.5772 9.57472 33.5332 9.50483 33.5039C9.43494 33.4746 9.36138 33.4599 9.28045 33.4599C9.19953 33.4599 9.12229 33.4746 9.04872 33.5039C8.97516 33.5332 8.91262 33.5772 8.86113 33.6286C8.80963 33.6799 8.76549 33.7459 8.73239 33.8156Z" fill="#40AF7B"/>
    <path d="M7.49624 33.4526C7.419 33.4526 7.34175 33.4672 7.27187 33.4966C7.20198 33.5259 7.13945 33.5699 7.08427 33.6213C7.0291 33.6726 6.98864 33.7386 6.95553 33.8083C6.92243 33.8779 6.90771 33.9586 6.90771 34.0393C6.90771 34.1199 6.92243 34.1969 6.95553 34.2666C6.98864 34.3363 7.03278 34.3986 7.08427 34.45C7.13577 34.5013 7.1983 34.5416 7.27187 34.5746C7.34175 34.604 7.41532 34.6186 7.49624 34.6186C7.57716 34.6186 7.65073 34.604 7.7243 34.5746C7.79786 34.5453 7.86039 34.505 7.91189 34.45C7.96338 34.395 8.00752 34.3363 8.03695 34.2666C8.06638 34.1969 8.08109 34.1199 8.08109 34.0393C8.08109 33.9586 8.06638 33.8816 8.03695 33.8083C8.00752 33.7349 7.96338 33.6726 7.91189 33.6213C7.86039 33.5699 7.79418 33.5259 7.7243 33.4966C7.65441 33.4672 7.57716 33.4526 7.49624 33.4526Z" fill="#40AF7B"/>
    <path d="M11.366 32.8732H12.8961V32.5396H12.1973C12.1237 32.5212 12.0648 32.4662 12.0133 32.3746C11.9839 32.3196 11.9692 32.2609 11.9655 32.1985C11.9655 32.1802 11.9619 32.1655 11.9619 32.1509C11.9619 32.1069 11.9692 32.0702 11.9839 32.0335C12.0133 31.9602 12.0612 31.9272 12.1311 31.9272C12.1936 31.9272 12.2414 31.9382 12.2782 31.9639C12.326 32.0042 12.3554 32.0665 12.3738 32.1509L12.8152 32.0959C12.7821 31.9419 12.7122 31.8209 12.5982 31.7292C12.4731 31.6339 12.315 31.5825 12.1311 31.5825C11.8331 31.5825 11.6418 31.7035 11.5536 31.9419C11.5278 32.0152 11.5168 32.0885 11.5168 32.1619V32.2169C11.5278 32.3306 11.5646 32.4406 11.6234 32.5396H11.3696V32.8732H11.366Z" fill="#40AF7B"/>
    <path d="M14.8602 34.6186C14.9301 34.648 15.0037 34.6626 15.0846 34.6626C15.1655 34.6626 15.2391 34.648 15.3127 34.6186C15.3862 34.5893 15.4488 34.5453 15.5003 34.494C15.5554 34.4426 15.5959 34.3803 15.6253 34.3106C15.6548 34.241 15.6695 34.1639 15.6695 34.0833C15.6695 34.0026 15.6548 33.9256 15.6253 33.8523C15.5959 33.7789 15.5518 33.7166 15.5003 33.6653C15.4488 33.6139 15.3826 33.5699 15.3127 33.5406C15.2391 33.5113 15.1655 33.4966 15.0846 33.4966C15.0037 33.4966 14.9301 33.5113 14.8602 33.5406C14.7904 33.5699 14.7278 33.6139 14.6727 33.6653C14.6175 33.7166 14.577 33.7826 14.5439 33.8523C14.5108 33.9219 14.4961 34.0026 14.4961 34.0833C14.4961 34.1639 14.5108 34.241 14.5439 34.3106C14.577 34.3803 14.6212 34.4426 14.6727 34.494C14.7278 34.5453 14.7867 34.5856 14.8602 34.6186Z" fill="#40AF7B"/>
    <path d="M16.2692 34.6186C16.3427 34.648 16.42 34.6626 16.5009 34.6626C16.5818 34.6626 16.6554 34.648 16.7253 34.6186C16.7952 34.5893 16.8577 34.5453 16.9092 34.494C16.9607 34.4426 17.0012 34.3803 17.0343 34.3106C17.0637 34.241 17.0784 34.1639 17.0784 34.0833C17.0784 34.0026 17.0637 33.9256 17.0343 33.8523C17.0048 33.7789 16.9607 33.7166 16.9092 33.6653C16.8577 33.6139 16.7952 33.5699 16.7253 33.5406C16.6554 33.5113 16.5818 33.4966 16.5009 33.4966C16.42 33.4966 16.3427 33.5113 16.2692 33.5406C16.1956 33.5699 16.1331 33.6139 16.0816 33.6653C16.0301 33.7166 15.986 33.7826 15.9528 33.8523C15.9197 33.9219 15.905 34.0026 15.905 34.0833C15.905 34.1639 15.9197 34.241 15.9528 34.3106C15.986 34.3803 16.0301 34.4426 16.0816 34.494C16.1368 34.5453 16.1993 34.5856 16.2692 34.6186Z" fill="#40AF7B"/>
    <path d="M19.061 38.0032C19.061 38.2928 18.9617 38.5348 18.763 38.7292C18.5975 38.8942 18.4099 38.9749 18.2039 38.9749H17.38C17.0747 38.9749 16.8209 38.8722 16.6186 38.6705C16.4163 38.4615 16.3096 38.1792 16.2912 37.8235V35.5207H15.3422V37.7135C15.3422 38.1278 15.2319 38.4505 15.0075 38.6815C14.8089 38.8832 14.5514 38.9822 14.2314 38.9822H13.1058C12.8962 38.9822 12.7122 38.9015 12.5467 38.7365C12.3481 38.5422 12.2488 38.3002 12.2488 38.0105V33.4819H11.3071V38.0105C11.3071 38.4542 11.469 38.8392 11.7927 39.1582C12.1495 39.5139 12.5872 39.6899 13.1058 39.6899H14.2682C14.8898 39.6789 15.39 39.4846 15.7726 39.0922L15.8167 39.0482L15.8535 39.0849C16.2397 39.4809 16.74 39.6826 17.3616 39.6862H17.3763H18.2003C18.7226 39.6862 19.1603 39.5102 19.5134 39.1545C19.8371 38.8319 19.9989 38.4505 19.9989 38.0068V33.4783H19.0573V38.0068L19.061 38.0032Z" fill="#40AF7B"/>
    <path d="M22.022 33.4746H21.0803V39.3306H22.022V33.4746Z" fill="#40AF7B"/>
    <path d="M35.297 38.0032C35.297 38.2928 35.1977 38.5349 34.9991 38.7292C34.8335 38.8942 34.646 38.9749 34.44 38.9749H33.7485C33.3622 38.9749 32.8252 38.7732 32.1374 38.3662C31.9718 38.2818 31.8468 38.2158 31.7585 38.1718C31.6077 38.0838 31.4238 38.0032 31.2031 37.9372C30.9493 37.8455 30.6844 37.7795 30.4122 37.7391L30.1805 38.4212H30.2173C30.6587 38.5312 30.9677 38.6375 31.1369 38.7439C31.4238 38.9309 31.5672 39.2059 31.5672 39.5762C31.5672 39.6862 31.5562 39.7926 31.5304 39.8916C31.4495 40.2069 31.2178 40.4379 30.8389 40.5883C30.5005 40.7276 30.0738 40.7973 29.5515 40.7973H29.4963C29.077 40.7973 28.7092 40.757 28.3965 40.6726C27.8742 40.5333 27.477 40.3096 27.1937 40.0016C26.9142 39.6899 26.7744 39.3086 26.7744 38.8575C26.7744 38.6449 26.7891 38.4432 26.8185 38.2488C26.8443 38.0618 26.8848 37.8895 26.9363 37.7318L26.0204 37.5668C25.9541 37.7575 25.91 37.9592 25.8806 38.1792C25.8475 38.3882 25.8328 38.6119 25.8328 38.8575C25.8328 39.4552 26.0277 39.9686 26.4139 40.3939C26.8075 40.834 27.3666 41.1493 28.0839 41.34C28.5069 41.45 28.9998 41.505 29.5552 41.505C30.2357 41.505 30.8132 41.4023 31.2914 41.2043C31.9277 40.9476 32.3139 40.5516 32.4537 40.0236C32.4905 39.8842 32.5089 39.7339 32.5089 39.5726C32.5089 39.4992 32.5089 39.4296 32.4978 39.3636C32.8877 39.5469 33.2519 39.6459 33.5903 39.6716V39.6826H34.4326C34.9549 39.6826 35.3926 39.5066 35.7458 39.1509C36.0695 38.8282 36.2313 38.4468 36.2313 38.0032V33.4746H35.2897V38.0032H35.297Z" fill="#40AF7B"/>
    <path d="M38.5964 33.4746H37.6548V39.3306H38.5964V33.4746Z" fill="#40AF7B"/>
    <path d="M37.9638 40.6506C37.9343 40.5956 37.9196 40.5369 37.916 40.4746C37.916 40.4563 37.9123 40.4416 37.9123 40.4269C37.9123 40.3829 37.9196 40.3463 37.9343 40.3096C37.9638 40.2363 38.0116 40.2033 38.0815 40.2033C38.144 40.2033 38.1918 40.2143 38.2286 40.2399C38.2764 40.2803 38.3059 40.3426 38.3242 40.4269L38.7656 40.3719C38.7325 40.2179 38.6626 40.0969 38.5486 40.0053C38.4236 39.9099 38.2654 39.8586 38.0815 39.8586C37.7835 39.8586 37.5923 39.9796 37.504 40.2179C37.4782 40.2913 37.4672 40.3646 37.4672 40.4379V40.4929C37.4782 40.6066 37.515 40.7166 37.5739 40.8156H37.3201V41.1493H38.8502V40.8156H38.1514C38.0778 40.7973 38.0189 40.7423 37.9674 40.6506H37.9638Z" fill="#40AF7B"/>
    <path d="M48.5204 33.9659C48.5903 33.9953 48.6639 34.0099 48.7448 34.0099C48.8257 34.0099 48.8993 33.9953 48.9728 33.9659C49.0464 33.9366 49.1089 33.8963 49.1604 33.8413C49.2119 33.7863 49.2561 33.7276 49.2855 33.6579C49.3149 33.5882 49.3296 33.5112 49.3296 33.4306C49.3296 33.3499 49.3149 33.2729 49.2855 33.1996C49.2561 33.1262 49.2119 33.0639 49.1604 33.0125C49.1089 32.9612 49.0427 32.9172 48.9728 32.8879C48.9029 32.8585 48.8257 32.8439 48.7448 32.8439C48.6639 32.8439 48.5903 32.8585 48.5204 32.8879C48.4505 32.9172 48.388 32.9612 48.3328 33.0125C48.2776 33.0639 48.2372 33.1299 48.2041 33.1996C48.171 33.2692 48.1562 33.3499 48.1562 33.4306C48.1562 33.5112 48.171 33.5882 48.2041 33.6579C48.2372 33.7276 48.2813 33.7899 48.3328 33.8413C48.3843 33.8926 48.4468 33.9329 48.5204 33.9659Z" fill="#40AF7B"/>
    <path d="M48.8036 34.549C47.976 34.549 47.3286 34.7983 46.8541 35.3007C46.4275 35.7517 46.2141 36.3677 46.2141 37.1487C46.2141 37.8748 46.4348 38.4651 46.8762 38.9198L46.9314 38.9748H45.0922C44.5883 38.9748 44.1947 38.8245 43.9115 38.5275C43.5989 38.1975 43.4444 37.7171 43.4444 37.0864C43.4444 36.9177 43.4554 36.7637 43.4811 36.6244C43.5106 36.4814 43.551 36.3494 43.5989 36.2284L42.8595 36.0194C42.7896 36.1807 42.7418 36.3494 42.7087 36.529C42.6756 36.7124 42.6609 36.8994 42.6609 37.0864C42.6609 37.8638 42.8742 38.4798 43.3009 38.9345C43.7717 39.4332 44.4228 39.6825 45.2504 39.6825H48.7963C49.5982 39.6825 50.2419 39.4332 50.7311 38.9308C51.1761 38.4761 51.4005 37.8821 51.4005 37.1487C51.4005 36.364 51.1872 35.748 50.7605 35.297C50.2897 34.7983 49.6386 34.549 48.8036 34.549ZM49.9733 38.5201C49.6754 38.8245 49.2818 38.9785 48.8 38.9785C48.3181 38.9785 47.9429 38.8245 47.6413 38.5128C47.3176 38.1828 47.1558 37.7318 47.1558 37.1524C47.1558 36.5217 47.3139 36.0414 47.6303 35.7077C47.9098 35.4107 48.3034 35.2603 48.8036 35.2603C49.3039 35.2603 49.7085 35.4107 49.988 35.7077C50.3007 36.034 50.4552 36.5144 50.4552 37.1524C50.4552 37.7354 50.2933 38.1938 49.9697 38.5238L49.9733 38.5201Z" fill="#40AF7B"/>
    <path d="M53.2176 38.9382C53.2176 39.4992 53.0999 40.0016 52.8682 40.4379C52.7799 40.6029 52.6512 40.7826 52.4893 40.9733C52.3348 41.1603 52.1472 41.3546 51.9229 41.56L52.6548 42C52.8976 41.7763 53.1109 41.56 53.2838 41.351C53.4751 41.1236 53.6259 40.9073 53.7362 40.6946C54.0158 40.1666 54.1556 39.5726 54.1556 38.9125V35.517H53.2139V38.9382H53.2176Z" fill="#40AF7B"/>
    <path d="M67.9564 34.6186C68.0263 34.648 68.0999 34.6626 68.1808 34.6626C68.2617 34.6626 68.3353 34.648 68.4089 34.6186C68.4824 34.5893 68.545 34.5453 68.5965 34.494C68.6516 34.4426 68.6921 34.3803 68.7215 34.3106C68.751 34.241 68.7657 34.1639 68.7657 34.0833C68.7657 34.0026 68.751 33.9256 68.7215 33.8523C68.6921 33.7789 68.648 33.7166 68.5965 33.6653C68.545 33.6139 68.4788 33.5699 68.4089 33.5406C68.3353 33.5113 68.2617 33.4966 68.1808 33.4966C68.0999 33.4966 68.0263 33.5113 67.9564 33.5406C67.8866 33.5699 67.824 33.6139 67.7688 33.6653C67.7137 33.7166 67.6732 33.7826 67.6401 33.8523C67.607 33.9219 67.5923 34.0026 67.5923 34.0833C67.5923 34.1639 67.607 34.241 67.6401 34.3106C67.6732 34.3803 67.7174 34.4426 67.7688 34.494C67.824 34.5453 67.8829 34.5856 67.9564 34.6186Z" fill="#40AF7B"/>
    <path d="M69.3654 34.6186C69.4389 34.648 69.5162 34.6626 69.5971 34.6626C69.678 34.6626 69.7516 34.648 69.8215 34.6186C69.8914 34.5893 69.9539 34.5453 70.0054 34.494C70.0569 34.4426 70.0974 34.3803 70.1305 34.3106C70.1599 34.241 70.1746 34.1639 70.1746 34.0833C70.1746 34.0026 70.1599 33.9256 70.1305 33.8523C70.101 33.7789 70.0569 33.7166 70.0054 33.6653C69.9539 33.6139 69.8914 33.5699 69.8215 33.5406C69.7516 33.5113 69.678 33.4966 69.5971 33.4966C69.5162 33.4966 69.4389 33.5113 69.3654 33.5406C69.2918 33.5699 69.2293 33.6139 69.1778 33.6653C69.1263 33.7166 69.0821 33.7826 69.049 33.8523C69.0159 33.9219 69.0012 34.0026 69.0012 34.0833C69.0012 34.1639 69.0159 34.241 69.049 34.3106C69.0821 34.3803 69.1263 34.4426 69.1778 34.494C69.233 34.5453 69.2955 34.5856 69.3654 34.6186Z" fill="#40AF7B"/>
    <path d="M72.1866 38.0032C72.1866 38.2928 72.0873 38.5348 71.8887 38.7292C71.7232 38.8942 71.5356 38.9749 71.3296 38.9749H70.5056C70.2003 38.9749 69.9465 38.8722 69.7442 38.6705C69.5419 38.4615 69.4353 38.1792 69.4169 37.8235V35.5207H68.4679V37.7135C68.4679 38.1278 68.3575 38.4505 68.1331 38.6815C67.9345 38.8832 67.677 38.9822 67.357 38.9822H65.7128C66.202 38.5458 66.5368 37.9922 66.7207 37.3211C66.809 36.9911 66.8568 36.6941 66.8568 36.4227C66.8568 35.9791 66.7391 35.605 66.5073 35.3044C66.2719 34.9963 65.9298 34.78 65.4884 34.659C65.231 34.5857 64.9477 34.5527 64.6388 34.5527H63.8626C63.5573 34.5527 63.2741 34.5893 63.0166 34.659C62.5752 34.78 62.2332 34.9963 61.9941 35.3044C61.7623 35.605 61.6446 35.9791 61.6446 36.4227C61.6446 36.6904 61.6888 36.9911 61.7807 37.3211C61.9683 37.9922 62.303 38.5422 62.7886 38.9822H57.0394C56.8298 38.9822 56.6458 38.9015 56.4803 38.7365C56.2817 38.5422 56.1824 38.3002 56.1824 38.0105V33.4819H55.2407V38.0105C55.2407 38.4542 55.4026 38.8392 55.7263 39.1582C56.0831 39.5139 56.5208 39.6899 57.0394 39.6899H67.4012C68.0228 39.6789 68.523 39.4846 68.9056 39.0922L68.9497 39.0482L68.9865 39.0849C69.3727 39.4809 69.873 39.6826 70.4946 39.6862H70.5093H71.3333C71.8556 39.6862 72.2933 39.5102 72.6464 39.1545C72.9701 38.8319 73.1319 38.4505 73.1319 38.0068V33.4783H72.1903V38.0068L72.1866 38.0032ZM64.83 38.6412C64.6424 38.7879 64.4401 38.9052 64.2194 38.9969C64.0024 38.9089 63.8038 38.7879 63.6162 38.6412C63.1564 38.2782 62.8438 37.7905 62.6746 37.1744C62.5973 36.8994 62.5605 36.6464 62.5605 36.4154C62.5605 36.0964 62.6341 35.8434 62.7812 35.6527C62.9026 35.4914 63.0792 35.3814 63.3109 35.319C63.4617 35.275 63.6346 35.253 63.8332 35.253H64.6093C64.808 35.253 64.9845 35.275 65.139 35.319C65.3671 35.3814 65.5436 35.4914 65.6687 35.6527C65.8158 35.8434 65.8894 36.0964 65.8894 36.4154C65.8894 36.6428 65.8526 36.8958 65.7754 37.1744C65.6062 37.7905 65.2935 38.2782 64.8337 38.6412H64.83Z" fill="#40AF7B"/>
    <path d="M75.1182 33.4746H74.1765V39.3306H75.1182V33.4746Z" fill="#40AF7B"/>
    <path d="M82.3129 34.0906C82.2394 34.0613 82.1658 34.0466 82.0849 34.0466C82.0039 34.0466 81.9304 34.0613 81.8605 34.0906C81.7906 34.12 81.7281 34.164 81.6729 34.2153C81.6177 34.2666 81.5773 34.3326 81.5442 34.4023C81.5111 34.472 81.4963 34.5527 81.4963 34.6333C81.4963 34.714 81.5111 34.791 81.5442 34.8607C81.5773 34.9303 81.6214 34.9927 81.6729 35.044C81.7244 35.0953 81.7869 35.1357 81.8605 35.1687C81.9304 35.198 82.0039 35.2127 82.0849 35.2127C82.1658 35.2127 82.2394 35.198 82.3129 35.1687C82.3865 35.1394 82.449 35.099 82.5005 35.044C82.552 34.989 82.5962 34.9303 82.6256 34.8607C82.655 34.791 82.6697 34.714 82.6697 34.6333C82.6697 34.5527 82.655 34.4757 82.6256 34.4023C82.5962 34.329 82.552 34.2666 82.5005 34.2153C82.449 34.164 82.3828 34.12 82.3129 34.0906Z" fill="#40AF7B"/>
    <path d="M89.5884 34.549C88.7608 34.549 88.1134 34.7983 87.6389 35.3007C87.2122 35.7517 86.9989 36.3677 86.9989 37.1487V37.7061C86.9989 38.1205 86.8885 38.4431 86.6642 38.6741C86.4692 38.8722 86.2154 38.9712 85.8991 38.9748C85.5975 38.9748 85.3473 38.8722 85.1487 38.6705C84.9648 38.5165 84.8655 38.2525 84.8508 37.8748V35.517H83.9091V38.4981C83.9091 38.6375 83.9018 38.7731 83.887 38.9015L83.876 38.9125H83.8797C83.8135 39.4442 83.6222 39.8732 83.3022 40.2032C82.9197 40.5919 82.4157 40.7899 81.7978 40.7899C81.1798 40.7899 80.7017 40.5919 80.3154 40.1922C79.9145 39.7815 79.7122 39.2168 79.7122 38.5018C79.7122 38.2891 79.7269 38.0911 79.76 37.9041C79.7894 37.7171 79.8336 37.5448 79.8887 37.3871L79.1457 37.2001C79.0685 37.3981 79.017 37.6034 78.9839 37.8161C78.9471 38.0361 78.9287 38.2635 78.9287 38.4981C78.9287 39.3635 79.1899 40.0675 79.7085 40.6029C80.2823 41.1969 80.9775 41.4939 81.7941 41.4939C82.7321 41.4939 83.4861 41.2006 84.0563 40.6176C84.391 40.2729 84.619 39.8622 84.7404 39.3818L84.7846 39.4038C85.0788 39.5762 85.4209 39.6679 85.8145 39.6825H86.2559V39.6532C86.7193 39.5872 87.1056 39.4038 87.4145 39.0885C87.4844 39.0152 87.5433 38.9418 87.5984 38.8685L87.6536 38.9235C88.1428 39.4332 88.7829 39.6862 89.5774 39.6862C90.3719 39.6862 91.0229 39.4368 91.5122 38.9345C91.9572 38.4798 92.1816 37.8858 92.1816 37.1524C92.1816 36.3677 91.9683 35.7517 91.5416 35.3007C91.0708 34.802 90.4197 34.5526 89.5847 34.5526L89.5884 34.549ZM90.7581 38.5201C90.4602 38.8245 90.0666 38.9785 89.5847 38.9785C89.1029 38.9785 88.7277 38.8245 88.4261 38.5128C88.1024 38.1828 87.9405 37.7318 87.9405 37.1524C87.9405 36.5217 88.0987 36.0414 88.415 35.7077C88.6946 35.4107 89.0882 35.2603 89.5884 35.2603C90.0887 35.2603 90.4933 35.4107 90.7728 35.7077C91.0855 36.034 91.24 36.5144 91.24 37.1524C91.24 37.7354 91.0781 38.1938 90.7544 38.5238L90.7581 38.5201Z" fill="#40AF7B"/>
  </g>
  <defs>
    <linearGradient id="paint0_linear_17_819" x1="106.674" y1="37.1818" x2="178.52" y2="18.7805" gradientUnits="userSpaceOnUse">
      <stop stop-color="#157FAE"/>
      <stop offset="1" stop-color="#41B07A"/>
    </linearGradient>
    <linearGradient id="paint1_linear_17_819" x1="106.063" y1="34.802" x2="177.91" y2="16.4007" gradientUnits="userSpaceOnUse">
      <stop stop-color="#157FAE"/>
      <stop offset="1" stop-color="#41B07A"/>
    </linearGradient>
    <linearGradient id="paint2_linear_17_819" x1="105.457" y1="32.4259" x2="177.303" y2="14.0247" gradientUnits="userSpaceOnUse">
      <stop stop-color="#157FAE"/>
      <stop offset="1" stop-color="#41B07A"/>
    </linearGradient>
    <linearGradient id="paint3_linear_17_819" x1="104.846" y1="30.0498" x2="176.692" y2="11.6485" gradientUnits="userSpaceOnUse">
      <stop stop-color="#157FAE"/>
      <stop offset="1" stop-color="#41B07A"/>
    </linearGradient>
    <linearGradient id="paint4_linear_17_819" x1="103.75" y1="25.7633" x2="175.596" y2="7.36196" gradientUnits="userSpaceOnUse">
      <stop stop-color="#157FAE"/>
      <stop offset="1" stop-color="#41B07A"/>
    </linearGradient>
    <linearGradient id="paint5_linear_17_819" x1="105.309" y1="31.8612" x2="177.156" y2="13.4599" gradientUnits="userSpaceOnUse">
      <stop stop-color="#157FAE"/>
      <stop offset="1" stop-color="#41B07A"/>
    </linearGradient>
    <clipPath id="clip0_17_819">
      <rect width="178" height="42" fill="white"/>
    </clipPath>
  </defs>
</svg>