<svg width="79" height="484" viewBox="0 0 79 484" fill="none" xmlns="http://www.w3.org/2000/svg">
<mask id="mask0_21_2554" style="mask-type:alpha" maskUnits="userSpaceOnUse" x="0" y="0" width="119" height="484">
<rect width="119" height="484" fill="white"/>
</mask>
<g mask="url(#mask0_21_2554)">
<path d="M90.3416 340.869C83.2796 340.869 77.5361 335.127 77.5361 328.066C77.5361 321.006 83.2796 315.264 90.3416 315.264C97.4037 315.264 103.147 321.006 103.147 328.066C103.147 335.127 97.4037 340.869 90.3416 340.869ZM90.3416 319.014C85.3308 319.014 81.2576 323.086 81.2576 328.096C81.2576 333.105 85.3308 337.178 90.3416 337.178C95.3525 337.178 99.4256 333.105 99.4256 328.096C99.4256 323.086 95.3525 319.014 90.3416 319.014Z" fill="#3EB985"/>
<path d="M62.9432 484.922C55.8811 484.922 50.1377 479.18 50.1377 472.119C50.1377 465.059 55.8811 459.316 62.9432 459.316C70.0053 459.316 75.7487 465.059 75.7487 472.119C75.7487 479.18 70.0053 484.922 62.9432 484.922ZM62.9432 463.066C57.9323 463.066 53.8592 467.139 53.8592 472.148C53.8592 477.158 57.9323 481.23 62.9432 481.23C67.954 481.23 72.0272 477.158 72.0272 472.148C72.0272 467.139 67.954 463.066 62.9432 463.066Z" fill="#1C81AC"/>
<path d="M23.9114 469.453C10.7543 469.453 0.0292969 458.76 0.0292969 445.576C0.0292969 432.393 10.725 421.699 23.9114 421.699H26.6366V425.42H23.9114C12.8055 425.42 3.75081 434.443 3.75081 445.576C3.75081 456.709 12.7762 465.732 23.9114 465.732C35.0466 465.732 44.072 456.709 44.072 445.576V289.57H47.7935V445.576C47.7935 458.73 37.0978 469.453 23.9114 469.453Z" fill="#1C81AC"/>
<path d="M86.7373 353.965H86.3857C72.115 353.965 60.511 342.363 60.511 328.096C60.511 313.828 72.115 302.227 86.3857 302.227H110.385C125.828 302.227 138.37 289.687 138.37 274.248H142.091C142.091 291.738 127.879 305.947 110.385 305.947H86.3857C74.1663 305.947 64.2325 315.879 64.2325 328.096C64.2325 340.312 74.1663 350.244 86.3857 350.244H86.7373V353.965Z" fill="#1C81AC"/>
<path d="M37.9476 291.445H37.4202C16.7907 291.445 0 274.658 0 254.033C0 233.408 16.7907 216.621 37.4202 216.621H110.502V220.342H37.4202C18.842 220.342 3.75083 235.459 3.75083 254.004C3.75083 272.549 18.8713 287.666 37.4202 287.666H37.9476V291.387V291.445Z" fill="#1C81AC"/>
<path d="M109.506 474.053C92.1878 474.053 78.093 459.961 78.093 442.646V442.207H81.8145V442.646C81.8145 457.91 94.2391 470.332 109.506 470.332C124.773 470.332 137.198 457.91 137.198 442.646V361.055H140.919V442.646C140.919 459.961 126.824 474.053 109.506 474.053Z" fill="#1C81AC"/>
<path d="M17.6112 408.633C7.91185 408.633 0.0292969 400.752 0.0292969 391.055C0.0292969 381.357 7.91185 373.477 17.6112 373.477C27.3105 373.477 35.1931 381.357 35.1931 391.055C35.1931 400.752 27.3105 408.633 17.6112 408.633ZM17.6112 377.197C9.96307 377.197 3.75081 383.408 3.75081 391.055C3.75081 398.701 9.96307 404.912 17.6112 404.912C25.2593 404.912 31.4716 398.701 31.4716 391.055C31.4716 383.408 25.2593 377.197 17.6112 377.197Z" fill="#3EB985"/>
<path d="M17.494 370.664C7.88254 370.664 0.0292969 362.842 0.0292969 353.203V330.879C0.0292969 321.269 7.85324 313.418 17.494 313.418C27.1347 313.418 34.9587 321.24 34.9587 330.879V353.203C34.9587 362.812 27.1347 370.664 17.494 370.664ZM17.494 317.168C9.93377 317.168 3.75081 323.32 3.75081 330.908V353.232C3.75081 360.791 9.90446 366.973 17.494 366.973C25.0835 366.973 31.2372 360.82 31.2372 353.232V330.908C31.2372 323.35 25.0835 317.168 17.494 317.168Z" fill="#3EB985"/>
<path d="M42.7533 169.805C31.9111 169.805 23.1201 160.986 23.1201 150.176C23.1201 139.365 31.9404 130.547 42.7533 130.547C53.5661 130.547 62.3864 139.365 62.3864 150.176C62.3864 160.986 53.5661 169.805 42.7533 169.805ZM42.7533 134.238C33.9623 134.238 26.8416 141.387 26.8416 150.146C26.8416 158.906 33.9916 166.055 42.7533 166.055C51.5149 166.055 58.6649 158.906 58.6649 150.146C58.6649 141.387 51.5149 134.238 42.7533 134.238Z" fill="#1C81AC"/>
<path d="M63.1776 204.199H36.9805C29.3324 204.199 23.0908 197.959 23.0908 190.312C23.0908 182.666 29.3324 176.426 36.9805 176.426H63.1776C70.8257 176.426 77.0672 182.666 77.0672 190.312C77.0672 197.959 70.8257 204.199 63.1776 204.199ZM36.9805 180.146C31.3836 180.146 26.8123 184.717 26.8123 190.312C26.8123 195.908 31.3836 200.479 36.9805 200.479H63.1776C68.7745 200.479 73.3458 195.908 73.3458 190.312C73.3458 184.717 68.7745 180.146 63.1776 180.146H36.9805Z" fill="#1C81AC"/>
<path d="M107.836 411.24H77.3605C67.7197 411.24 59.8665 403.389 59.8665 393.75C59.8665 384.111 67.7197 376.26 77.3605 376.26H107.836C117.476 376.26 125.33 384.111 125.33 393.75C125.33 403.389 117.476 411.24 107.836 411.24ZM77.3605 379.98C69.7709 379.98 63.588 386.162 63.588 393.75C63.588 401.338 69.7709 407.52 77.3605 407.52H107.836C115.425 407.52 121.608 401.338 121.608 393.75C121.608 386.162 115.425 379.98 107.836 379.98H77.3605Z" fill="#1C81AC"/>
<path d="M45.9181 27.3047C38.7388 27.3047 32.9075 21.4746 32.9075 14.2969C32.9075 7.11914 38.7388 1.28906 45.9181 1.28906C53.0974 1.28906 58.9287 7.11914 58.9287 14.2969C58.9287 21.4746 53.0974 27.3047 45.9181 27.3047ZM45.9181 5.00977C40.79 5.00977 36.629 9.16992 36.629 14.2969C36.629 19.4238 40.79 23.584 45.9181 23.584C51.0461 23.584 55.2072 19.4238 55.2072 14.2969C55.2072 9.16992 51.0461 5.00977 45.9181 5.00977Z" fill="#3EB985"/>
<path d="M69.4487 91.0547H40.4678C29.7429 91.0547 20.9812 82.3242 20.9812 71.5723C20.9812 60.8203 29.7136 52.0898 40.4678 52.0898H69.4487C80.1736 52.0898 88.9352 60.8203 88.9352 71.5723C88.9352 82.3242 80.2029 91.0547 69.4487 91.0547ZM40.4678 55.8398C31.7941 55.8398 24.732 62.9004 24.732 71.5723C24.732 80.2441 31.7941 87.3047 40.4678 87.3047H69.4487C78.1224 87.3047 85.1844 80.2441 85.1844 71.5723C85.1844 62.9004 78.1224 55.8398 69.4487 55.8398H40.4678Z" fill="#1C81AC"/>
<path d="M124.509 363.604H65.8735V367.324H124.509V363.604Z" fill="#1C81AC"/>
<path d="M153.842 222.686C145.314 222.686 138.37 215.742 138.37 207.217V150.176C138.37 129.756 121.755 113.115 101.301 113.115H40.8193C20.395 113.115 3.75081 129.727 3.75081 150.176V199.189H0.0292969V150.176C0.0292969 127.676 18.3145 109.395 40.8193 109.395H101.301C123.806 109.395 142.091 127.676 142.091 150.176V207.217C142.091 213.691 147.366 218.965 153.842 218.965C160.318 218.965 165.592 213.691 165.592 207.217V153.662C165.592 138.428 177.988 126.035 193.225 126.035C208.463 126.035 220.858 138.428 220.858 153.662C220.858 168.896 208.463 181.289 193.225 181.289H190.06V177.568H193.225C206.412 177.568 217.137 166.846 217.137 153.662C217.137 140.479 206.412 129.756 193.225 129.756C180.039 129.756 169.314 140.479 169.314 153.662V207.217C169.314 215.742 162.369 222.686 153.842 222.686Z" fill="#3EB985"/>
<path d="M33.9332 103.301H33.4936C15.9703 103.301 1.69971 89.0332 1.69971 71.5137C1.69971 53.9941 15.9703 39.7266 33.4936 39.7266H46.7094C63.0899 39.7266 76.4228 26.3965 76.4228 10.0195V3.13477H80.1443V10.0195C80.1443 28.4473 65.1411 43.4473 46.7094 43.4473H33.4936C18.0216 43.4473 5.42122 56.0449 5.42122 71.5137C5.42122 86.9824 18.0216 99.5801 33.4936 99.5801H33.9332V103.301Z" fill="#1C81AC"/>
<path d="M85.0963 268.271H39.061C30.2701 268.271 23.0908 261.123 23.0908 252.305C23.0908 243.486 30.2408 236.338 39.061 236.338H44.6872V240.059H39.061C32.3213 240.059 26.8416 245.537 26.8416 252.275C26.8416 259.014 32.3213 264.492 39.061 264.492H85.0963C91.8361 264.492 97.3157 259.014 97.3157 252.275C97.3157 245.537 91.8361 240.059 85.0963 240.059H63.9688V236.338H85.0963C93.8873 236.338 101.067 243.486 101.067 252.305C101.067 261.123 93.9166 268.271 85.0963 268.271Z" fill="#1C81AC"/>
<path d="M100.041 291.445H56.2034V287.725H100.041C111.674 287.725 121.169 278.262 121.169 266.602V146.953C121.169 137.461 113.462 129.756 103.968 129.756C94.4733 129.756 86.7666 137.461 86.7666 146.953V164.004H83.0451V146.953C83.0451 135.41 92.4221 126.035 103.968 126.035C115.513 126.035 124.89 135.41 124.89 146.953V266.602C124.89 280.312 113.755 291.445 100.041 291.445Z" fill="#1C81AC"/>
</g>
</svg>
