<svg width="552" height="197" viewBox="0 0 552 197" fill="none" xmlns="http://www.w3.org/2000/svg">
<g style="mix-blend-mode:screen" opacity="0.34">
<path d="M550.083 93.5371C550.083 121.464 527.353 144.2 499.431 144.2C471.51 144.2 448.779 121.464 448.779 93.5371C448.779 65.6089 471.51 42.8738 499.431 42.8738V47.1013C473.839 47.1013 453.006 67.939 453.006 93.5371C453.006 119.134 473.839 139.972 499.431 139.972C525.024 139.972 545.857 119.134 545.857 93.5371H550.083Z" fill="#3EB985"/>
<path d="M521.995 93.537C521.995 106.918 511.113 117.803 497.734 117.803C484.356 117.803 473.473 106.918 473.473 93.537C473.473 80.1551 484.356 69.2703 497.734 69.2703C511.113 69.2703 521.995 80.1551 521.995 93.537ZM477.667 93.537C477.667 104.588 486.652 113.575 497.701 113.575C508.75 113.575 517.736 104.588 517.736 93.537C517.736 82.4852 508.75 73.4977 497.701 73.4977C486.652 73.4977 477.667 82.4852 477.667 93.537Z" fill="#3EB985"/>
<path d="M72.9163 159.778C72.9163 179.883 56.5758 196.227 36.4748 196.227C16.3737 196.227 0 179.883 0 159.778C0 139.672 16.3404 123.329 36.4415 123.329V127.556C18.67 127.556 4.2265 142.003 4.2265 159.778C4.2265 177.553 18.7033 192 36.4748 192C54.2462 192 68.6897 177.553 68.6897 159.778H72.9163Z" fill="#3EB985"/>
<path d="M54.2462 159.778C54.2462 169.598 46.259 177.586 36.4415 177.586C26.6239 177.586 18.6367 169.598 18.6367 159.778C18.6367 149.958 26.6239 141.969 36.4415 141.969C46.259 141.969 54.2462 149.958 54.2462 159.778ZM22.8965 159.778C22.8965 167.267 28.9868 173.326 36.4747 173.326C43.9627 173.326 50.0197 167.234 50.0197 159.778C50.0197 152.322 43.9294 146.23 36.4747 146.23C29.02 146.23 22.8965 152.322 22.8965 159.778Z" fill="#3EB985"/>
<path d="M391.771 64.7099C391.771 72.5656 385.381 78.99 377.494 78.99C369.607 78.99 363.217 72.5989 363.217 64.7099C363.217 56.8208 369.607 50.4297 377.494 50.4297C385.381 50.4297 391.771 56.8208 391.771 64.7099ZM367.477 64.7099C367.477 70.2355 371.969 74.7626 377.527 74.7626C383.085 74.7626 387.578 70.2688 387.578 64.7099C387.578 59.1509 383.085 54.6572 377.527 54.6572C371.969 54.6572 367.477 59.1509 367.477 64.7099Z" fill="#1C81AC"/>
<path d="M119.807 52.1942C119.807 65.5756 108.925 76.4605 95.546 76.4605C82.1679 76.4605 71.2854 65.5756 71.2854 52.1942C71.2854 38.8128 82.1679 27.928 95.546 27.928C108.925 27.928 119.807 38.8128 119.807 52.1942ZM75.5119 52.1942C75.5119 63.2455 84.4975 72.233 95.546 72.233C106.595 72.233 115.581 63.2455 115.581 52.1942C115.581 41.1429 106.595 32.1554 95.546 32.1554C84.4975 32.1554 75.5119 41.1429 75.5119 52.1942Z" fill="#3EB985"/>
<path d="M291.632 19.5063C291.632 29.1929 283.745 37.0819 274.06 37.0819C264.376 37.0819 256.488 29.1929 256.488 19.5063C256.488 9.81976 264.376 1.93066 274.06 1.93066C283.745 1.93066 291.632 9.81976 291.632 19.5063ZM260.748 19.5063C260.748 26.8628 266.738 32.8544 274.093 32.8544C281.448 32.8544 287.439 26.8628 287.439 19.5063C287.439 12.1499 281.448 6.15816 274.093 6.15816C266.738 6.15816 260.748 12.1499 260.748 19.5063Z" fill="#1C81AC"/>
<path d="M430.109 55.1565V58.6517C430.109 90.2739 404.384 116.005 372.768 116.005C346.71 116.005 325.511 94.8019 325.511 68.7376V58.3521H329.737V68.7376C329.737 92.4709 349.04 111.778 372.735 111.778C402.021 111.778 425.85 87.9443 425.85 58.6517V55.1565H430.076H430.109Z" fill="#1C81AC"/>
<path d="M467.849 21.0041C467.849 32.588 458.431 42.0082 446.849 42.0082H444.52V37.7808H446.849C456.101 37.7808 463.622 30.2579 463.622 21.0041C463.622 11.7503 456.101 4.2274 446.849 4.2274C437.597 4.2274 430.076 11.7503 430.076 21.0041V39.8779H425.85V21.0041C425.85 9.4202 435.268 0 446.849 0C458.431 0 467.849 9.4202 467.849 21.0041Z" fill="#1C81AC"/>
<path d="M240.447 116.871C240.447 132.383 227.834 144.998 212.326 144.998H209.131V140.771H212.326C225.505 140.771 236.187 130.053 236.187 116.904C236.187 103.756 225.471 93.037 212.326 93.037C199.18 93.037 188.464 103.756 188.464 116.904V157.914C188.464 177.453 172.556 193.365 153.021 193.365H111.754C99.008 193.365 88.6576 183.012 88.6576 170.263C88.6576 157.514 99.008 147.162 111.754 147.162H139.11V151.39H111.754C101.337 151.39 92.884 159.844 92.884 170.263C92.884 180.682 101.337 189.137 111.754 189.137H153.021C170.227 189.137 184.237 175.123 184.237 157.914V116.904C184.237 101.392 196.851 88.7766 212.359 88.7766C227.867 88.7766 240.48 101.392 240.48 116.904L240.447 116.871Z" fill="#1C81AC"/>
<path d="M434.469 172.26C434.469 183.844 425.051 193.265 413.47 193.265H411.14V189.037H413.47C422.721 189.037 430.243 181.514 430.243 172.26C430.243 163.007 422.721 155.484 413.47 155.484C404.218 155.484 396.696 163.007 396.696 172.26C396.696 183.844 387.278 193.265 375.697 193.265H338.69C327.707 193.265 318.788 184.344 318.788 173.359C318.788 162.374 327.707 153.453 338.69 153.453C349.672 153.453 358.591 162.374 358.591 173.359V175.556H354.364V173.359C354.364 164.704 347.342 157.681 338.69 157.681C330.037 157.681 323.015 164.704 323.015 173.359C323.015 182.014 330.037 189.037 338.69 189.037H375.697C384.949 189.037 392.47 181.514 392.47 172.26C392.47 160.677 401.888 151.256 413.47 151.256C425.051 151.256 434.469 160.677 434.469 172.26Z" fill="#3EB985"/>
<path d="M233.525 51.6282V52.7267C233.525 65.7086 222.975 76.2606 209.996 76.2606H152.289C139.309 76.2606 128.76 65.7086 128.76 52.7267V51.6282C128.76 38.6462 139.309 28.0942 152.289 28.0942H209.996C222.975 28.0942 233.525 38.6462 233.525 51.6282ZM132.986 52.7267C132.986 63.3785 141.639 72.0332 152.289 72.0332H209.996C220.646 72.0332 229.298 63.3785 229.298 52.7267V51.6282C229.298 40.9763 220.646 32.3217 209.996 32.3217H152.289C141.639 32.3217 132.986 40.9763 132.986 51.6282V52.7267Z" fill="#3EB985"/>
<path d="M237.119 173.359C237.119 184.377 228.167 193.331 217.151 193.331C206.136 193.331 197.183 184.377 197.183 173.359C197.183 162.341 206.136 153.387 217.151 153.387C228.167 153.387 237.119 162.341 237.119 173.359ZM201.41 173.359C201.41 182.047 208.465 189.104 217.151 189.104C225.837 189.104 232.893 182.047 232.893 173.359C232.893 164.671 225.837 157.614 217.151 157.614C208.465 157.614 201.41 164.671 201.41 173.359Z" fill="#1C81AC"/>
<path d="M442.257 125.659C442.257 135.112 434.569 142.768 425.151 142.768C415.733 142.768 408.045 135.079 408.045 125.659C408.045 116.238 415.733 108.549 425.151 108.549C434.569 108.549 442.257 116.238 442.257 125.659ZM412.238 125.659C412.238 132.749 418.029 138.541 425.118 138.541C432.206 138.541 437.997 132.749 437.997 125.659C437.997 118.568 432.206 112.777 425.118 112.777C418.029 112.777 412.238 118.568 412.238 125.659Z" fill="#1C81AC"/>
<path d="M311.067 173.359C311.067 184.277 302.182 193.198 291.232 193.198H264.076C253.16 193.198 244.241 184.31 244.241 173.359C244.241 162.408 253.127 153.52 264.076 153.52H291.232C302.148 153.52 311.067 162.408 311.067 173.359ZM248.468 173.359C248.468 181.947 255.457 188.971 264.076 188.971H291.232C299.819 188.971 306.841 181.98 306.841 173.359C306.841 164.738 299.852 157.747 291.232 157.747H264.076C255.49 157.747 248.468 164.738 248.468 173.359Z" fill="#1C81AC"/>
<path d="M47.2241 30.7906V45.4036C47.2241 54.9237 39.4699 62.6796 29.9518 62.6796C20.4338 62.6796 12.6796 54.9237 12.6796 45.4036V30.7906C12.6796 21.2705 20.4338 13.5146 29.9518 13.5146C39.4699 13.5146 47.2241 21.2705 47.2241 30.7906ZM16.8728 45.4369C16.8728 52.6269 22.7301 58.4854 29.9186 58.4854C37.107 58.4854 42.9643 52.6269 42.9643 45.4369V30.8239C42.9643 23.6338 37.107 17.7753 29.9186 17.7753C22.7301 17.7753 16.8728 23.6338 16.8728 30.8239V45.4369Z" fill="#1C81AC"/>
<path d="M291.166 77.7585V124.46C291.166 132.815 284.343 139.639 275.99 139.639C267.637 139.639 260.814 132.815 260.814 124.46V77.7585C260.814 69.4035 267.637 62.5796 275.99 62.5796C284.343 62.5796 291.166 69.3702 291.166 77.7585ZM265.074 124.494C265.074 130.519 269.966 135.445 276.023 135.445C282.08 135.445 286.972 130.552 286.972 124.494V77.7918C286.972 71.7669 282.08 66.8404 276.023 66.8404C269.966 66.8404 265.074 71.7336 265.074 77.7918V124.494Z" fill="#1C81AC"/>
<path d="M551.548 173.292C551.548 184.31 542.595 193.265 531.58 193.265C520.564 193.265 511.612 184.31 511.612 173.292C511.612 162.274 520.564 153.32 531.58 153.32C542.595 153.32 551.548 162.274 551.548 173.292ZM515.838 173.292C515.838 181.98 522.894 189.037 531.58 189.037C540.266 189.037 547.321 181.98 547.321 173.292C547.321 164.604 540.266 157.548 531.58 157.548C522.894 157.548 515.838 164.604 515.838 173.292Z" fill="#1C81AC"/>
<path d="M47.2241 83.1842C47.2241 92.7039 39.4699 100.46 29.9518 100.46C20.4338 100.46 12.6796 92.7039 12.6796 83.1842C12.6796 73.6641 20.4338 65.9082 29.9518 65.9082C39.4699 65.9082 47.2241 73.6641 47.2241 83.1842ZM16.8728 83.1842C16.8728 90.3739 22.7301 96.2329 29.9186 96.2329C37.107 96.2329 42.9643 90.3739 42.9643 83.1842C42.9643 75.9942 37.107 70.1357 29.9186 70.1357C22.7301 70.1357 16.8728 75.9942 16.8728 83.1842Z" fill="#1C81AC"/>
<path d="M173.621 110.713C173.621 121.698 164.702 130.618 153.72 130.618C142.738 130.618 133.819 121.698 133.819 110.713C133.819 99.7279 142.738 90.8069 153.72 90.8069C164.702 90.8069 173.621 99.7279 173.621 110.713ZM138.045 110.713C138.045 119.367 145.067 126.391 153.72 126.391C162.373 126.391 169.395 119.367 169.395 110.713C169.395 102.058 162.373 95.0349 153.72 95.0349C145.067 95.0349 138.045 102.058 138.045 110.713Z" fill="#1C81AC"/>
<path d="M504.423 173.425C504.423 184.344 495.538 193.265 484.589 193.265H462.291C451.375 193.265 442.456 184.377 442.456 173.426C442.456 162.474 451.342 153.586 462.291 153.586H484.589C495.504 153.586 504.423 162.474 504.423 173.425ZM446.716 173.426C446.716 182.014 453.705 189.037 462.324 189.037H484.622C493.208 189.037 500.23 182.047 500.23 173.425C500.23 164.804 493.241 157.814 484.622 157.814H462.324C453.738 157.814 446.716 164.804 446.716 173.426Z" fill="#1C81AC"/>
<path d="M129.925 110.713C129.925 121.698 121.006 130.618 110.023 130.618H87.3266C76.3442 130.618 67.4252 121.698 67.4252 110.713C67.4252 99.7279 76.3442 90.8069 87.3266 90.8069H110.023C121.006 90.8069 129.925 99.7279 129.925 110.713ZM71.685 110.713C71.685 119.367 78.7071 126.391 87.3598 126.391H110.057C118.676 126.391 125.732 119.367 125.732 110.713C125.732 102.058 118.709 95.0349 110.057 95.0349H87.3598C78.7403 95.0349 71.685 102.058 71.685 110.713Z" fill="#1C81AC"/>
<path d="M545.857 4.76001V71.3674H550.083V4.76001H545.857Z" fill="#1C81AC"/>
<path d="M393.169 137.109V141.337H331.268C314.695 141.337 301.183 127.856 301.183 111.245V73.7975C301.183 59.6505 289.701 48.1664 275.558 48.1664C261.414 48.1664 249.932 59.6505 249.932 73.7975V74.1969H245.705V73.7975C245.705 57.3204 259.084 43.939 275.558 43.939C292.031 43.939 305.41 57.3204 305.41 73.7975V111.245C305.41 125.492 316.991 137.109 331.268 137.109H393.169Z" fill="#1C81AC"/>
</g>
</svg>
