<svg width="183" height="49" viewBox="0 0 183 49" fill="none" xmlns="http://www.w3.org/2000/svg">
<g clip-path="url(#clip0_83_131)">
<path d="M3.23237 13.9612C2.80519 13.9612 2.44922 14.3177 2.44922 14.7313C2.44922 15.1448 2.80519 15.5156 3.23237 15.5156C3.65954 15.5156 4.01551 15.1591 4.01551 14.7313C4.01551 14.3034 3.67378 13.9612 3.23237 13.9612Z" fill="#233A77"/>
<path d="M6.05164 14.7313C6.05164 14.3177 5.69567 13.9612 5.2685 13.9612C4.84133 13.9612 4.48535 14.3177 4.48535 14.7313C4.48535 15.1448 4.82709 15.5156 5.2685 15.5156C5.70991 15.5156 6.05164 15.1591 6.05164 14.7313Z" fill="#233A77"/>
<path d="M45.7642 1.697C46.1914 1.697 46.5473 1.34048 46.5473 0.91266C46.5473 0.484837 46.1914 0.142578 45.7642 0.142578C45.337 0.142578 44.9668 0.484837 44.9668 0.91266C44.9668 1.34048 45.3228 1.697 45.7642 1.697Z" fill="#233A77"/>
<path d="M55.1905 1.697C55.6177 1.697 55.9737 1.34048 55.9737 0.91266C55.9737 0.484837 55.6177 0.142578 55.1905 0.142578C54.7634 0.142578 54.4216 0.484837 54.4216 0.91266C54.4216 1.34048 54.7776 1.697 55.1905 1.697Z" fill="#233A77"/>
<path d="M53.1686 1.697C53.5957 1.697 53.9517 1.34048 53.9517 0.91266C53.9517 0.484837 53.5957 0.142578 53.1686 0.142578C52.7414 0.142578 52.3997 0.484837 52.3997 0.91266C52.3997 1.34048 52.7272 1.697 53.1686 1.697Z" fill="#233A77"/>
<path d="M60.6867 7.1874V0.142578L59.2486 0.570401V7.04479C59.2486 8.07157 58.7502 8.58495 57.7677 8.58495H56.8849V8.61347H56.4292C55.4325 8.61347 54.9341 8.11435 54.9341 7.11609V3.03751L53.5102 3.46534V7.07331C53.5102 8.10009 53.0119 8.61347 52.0009 8.61347H51.3744V8.58495H49.5091V8.07157C49.5091 6.60271 49.3097 5.47611 48.911 4.70602C48.3272 3.60794 47.2736 3.03751 45.75 3.03751C44.5397 3.03751 43.4432 3.53664 42.4323 4.52063L43.4575 5.47611C44.1694 4.70602 44.9241 4.30672 45.75 4.30672C46.7467 4.30672 47.4159 4.73455 47.7434 5.57593C47.957 6.08932 48.0567 6.91644 48.0567 8.07157V8.61347H41.6064V8.58495H40.3249C40.3819 6.95923 40.154 5.71854 39.6414 4.84863C38.901 3.65073 37.7904 3.06604 36.3237 3.10882C34.6435 3.1516 33.3335 3.89316 32.3938 5.34776C31.9524 6.00375 31.6249 6.70253 31.4255 7.45835V4.3495L29.9874 4.76307V8.58495H27.2108C27.2677 6.95923 27.0399 5.71854 26.5273 4.84863C25.7869 3.65073 24.6762 3.06604 23.2096 3.10882C21.5294 3.1516 20.2194 3.89316 19.2796 5.34776C18.8382 6.00375 18.5107 6.70253 18.3114 7.45835V4.3495L16.8732 4.76307V8.58495H7.77448V8.61347H7.33307C6.36482 8.61347 5.98037 8.29974 5.59591 7.34427L4.92668 8.69904C5.2257 9.39782 5.85222 9.7686 6.77775 9.8399C6.7208 10.5529 6.37906 11.0235 5.78102 11.2517C5.46776 11.3943 4.95516 11.4514 4.22897 11.4514C2.54876 11.4656 1.66594 10.4389 1.66594 8.69904C1.66594 7.658 1.96496 6.47436 2.54876 5.16237L0.911272 6.16062C0.49834 7.13036 0.313232 8.0573 0.313232 8.96999C0.313232 10.0823 0.612252 10.9808 1.22453 11.6225C1.908 12.3641 2.91897 12.7348 4.2432 12.7348C5.36809 12.7348 6.26515 12.5067 6.93438 12.0361C7.67481 11.5227 8.01655 10.7811 7.95959 9.82564H52.0863C53.0119 9.82564 53.7096 9.55469 54.2222 9.02704C54.7348 9.55469 55.4325 9.82564 56.3153 9.82564H57.8247C58.679 9.82564 59.3767 9.56895 59.8893 9.06982C60.4019 8.55643 60.6582 7.92896 60.6582 7.15888L60.6867 7.1874ZM25.7726 8.58495H19.0518C19.1087 7.72931 19.5359 6.8594 20.3333 5.97523C21.2161 4.94846 22.1844 4.43507 23.2523 4.43507C24.1209 4.43507 24.7901 4.79159 25.26 5.51889C25.6302 6.1321 25.8153 6.90218 25.8153 7.84339C25.8153 8.10009 25.8011 8.34252 25.7726 8.58495ZM38.8725 8.58495H32.1517C32.2087 7.72931 32.6358 6.8594 33.4332 5.97523C34.316 4.94846 35.2843 4.43507 36.3522 4.43507C37.2208 4.43507 37.89 4.79159 38.3599 5.51889C38.7301 6.1321 38.9152 6.90218 38.9152 7.84339C38.9152 8.10009 38.901 8.34252 38.8725 8.58495Z" fill="#233A77"/>
<path d="M63.4206 0.114014L61.9824 0.570358V9.85412H63.4206V0.114014Z" fill="#233A77"/>
<path d="M71.4941 12.7633C74.0571 12.7633 75.3956 11.7936 75.5237 9.86838H89.3641C90.2896 9.86838 90.9873 9.59742 91.4857 9.05552C92.0125 9.59742 92.7102 9.86838 93.5788 9.86838H104.344C105.155 9.86838 105.782 9.61168 106.209 9.11256C106.622 10.2677 107.718 10.9237 109.085 10.9237C110.537 10.9237 111.648 10.1821 112.004 8.91291C112.46 9.51186 113.115 9.8256 113.955 9.85412H114.083H114.923C115.777 9.85412 116.475 9.59742 116.988 9.0983C117.5 8.58491 117.757 7.95744 117.757 7.18735V0.142535L116.319 0.570358V7.04475C116.319 8.07152 115.82 8.58491 114.838 8.58491H113.955V8.61343C112.901 8.61343 112.275 8.1143 112.118 7.13031C111.976 6.24614 111.705 5.57589 111.278 5.16233C110.794 4.70598 110.068 4.47781 109.085 4.47781C107.305 4.47781 106.294 5.34772 106.038 7.11605C105.924 8.08578 105.312 8.57065 104.244 8.57065H102.421V8.05726C102.421 6.5884 102.222 5.4618 101.823 4.69172C101.239 3.59364 100.186 3.02321 98.6622 3.02321C97.4518 3.02321 96.3554 3.52234 95.3445 4.50633L96.3697 5.4618C97.0816 4.69172 97.8363 4.29242 98.6622 4.29242C99.6589 4.29242 100.328 4.72024 100.656 5.56163C100.869 6.07502 100.969 6.90214 100.969 8.05726V8.59917H94.5755V8.57065H93.6642C92.6818 8.57065 92.1834 8.08578 92.1834 7.10179V0.114014L90.7453 0.570358V7.04475C90.7453 8.07152 90.2469 8.58491 89.2502 8.58491H84.4089V3.03747L82.9707 3.46529V8.58491H79.9521V3.70773L78.5139 4.13555V8.58491H75.4953V4.46355L74.0571 4.90563V9.41203C74.0571 10.7811 73.2028 11.4656 71.4656 11.4656C69.3582 11.4656 68.5324 10.5386 68.5324 8.18561V6.87362L67.1085 7.30144C67.08 9.04125 67.2936 10.2962 67.7635 11.0948C68.4185 12.2071 69.6288 12.7776 71.4371 12.7776L71.4941 12.7633ZM109.099 5.68997C110.153 5.68997 110.68 6.36023 110.68 7.70074C110.68 9.04125 110.153 9.71151 109.099 9.71151C108.046 9.71151 107.505 9.04125 107.505 7.70074C107.505 6.36023 108.031 5.68997 109.099 5.68997Z" fill="#233A77"/>
<path d="M97.8647 11.9791C97.8647 12.4069 98.2207 12.7634 98.6479 12.7634C99.0751 12.7634 99.431 12.4069 99.431 11.9791C99.431 11.5512 99.0751 11.209 98.6479 11.209C98.2207 11.209 97.8647 11.5512 97.8647 11.9791Z" fill="#233A77"/>
<path d="M120.491 0.114014L119.067 0.570358V9.85412H120.491V0.114014Z" fill="#233A77"/>
<path d="M3.65942 21.8616C3.65942 22.2895 4.00116 22.646 4.42833 22.646C4.8555 22.646 5.21148 22.2895 5.21148 21.8616C5.21148 21.4338 4.8555 21.0916 4.42833 21.0916C4.00116 21.0916 3.65942 21.4338 3.65942 21.8616Z" fill="#233A77"/>
<path d="M1.60913 21.8616C1.60913 22.2895 1.96511 22.646 2.39228 22.646C2.81945 22.646 3.18966 22.2895 3.18966 21.8616C3.18966 21.4338 2.83369 21.0916 2.39228 21.0916C1.95087 21.0916 1.60913 21.4338 1.60913 21.8616Z" fill="#233A77"/>
<path d="M19.4789 32.1438C19.0517 32.1438 18.71 32.4861 18.71 32.9139C18.71 33.3417 19.0517 33.6982 19.4789 33.6982C19.906 33.6982 20.262 33.3417 20.262 32.9139C20.262 32.4861 19.906 32.1438 19.4789 32.1438Z" fill="#233A77"/>
<path d="M17.4571 32.1438C17.0157 32.1438 16.6882 32.4861 16.6882 32.9139C16.6882 33.3417 17.0157 33.6982 17.4571 33.6982C17.8985 33.6982 18.2403 33.3417 18.2403 32.9139C18.2403 32.4861 17.8843 32.1438 17.4571 32.1438Z" fill="#233A77"/>
<path d="M23.4232 32.1438C23.0103 32.1438 22.6543 32.4861 22.6543 32.9139C22.6543 33.3417 23.0103 33.6982 23.4232 33.6982C23.8361 33.6982 24.2064 33.3417 24.2064 32.9139C24.2064 32.4861 23.8504 32.1438 23.4232 32.1438Z" fill="#233A77"/>
<path d="M23.6937 28.0224C23.6937 29.0491 23.1954 29.5625 22.1986 29.5625H20.6608C19.6641 29.5625 19.1657 29.0634 19.1657 28.0652V23.9866L17.7418 24.4144V28.0224C17.7418 29.0491 17.2435 29.5625 16.2325 29.5625H15.606V29.534H7.95962V29.5625H7.41853C6.43604 29.5625 5.93767 29.0491 5.93767 28.0224V23.9866H2.87628C0.954015 23.9866 0 25.0989 0 27.3379C0 29.5768 0.968254 30.8032 2.87628 30.8032C4.00117 30.8032 4.7416 30.461 5.09757 29.7479C5.41083 30.461 6.1655 30.8032 7.34734 30.8032H16.3322C17.2577 30.8032 17.9554 30.5323 18.468 30.0046C18.9806 30.5323 19.6783 30.8032 20.5612 30.8032H22.2698C23.1242 30.8032 23.8219 30.5465 24.3345 30.0474C24.8471 29.5483 25.1034 28.9065 25.1034 28.1365V24.0008L23.6795 24.4287V28.0366L23.6937 28.0224ZM4.51377 27.3521C4.51377 28.0937 4.4141 28.6356 4.21475 28.9636C3.98693 29.3771 3.55976 29.5625 2.97596 29.5625C2.39216 29.5625 1.96499 29.3629 1.73716 28.9636C1.53782 28.6356 1.43814 28.0937 1.43814 27.3521C1.43814 26.6106 1.53782 26.0686 1.73716 25.7549C1.96499 25.3556 2.39216 25.1702 2.97596 25.1702H4.51377V27.3664V27.3521Z" fill="#233A77"/>
<path d="M32.9206 32.158C32.4934 32.158 32.1375 32.5145 32.1375 32.928C32.1375 33.3416 32.4934 33.7124 32.9206 33.7124C33.3478 33.7124 33.6895 33.3559 33.6895 32.928C33.6895 32.5002 33.3478 32.158 32.9206 32.158Z" fill="#233A77"/>
<path d="M42.5889 21.8616C42.5889 22.2894 42.9306 22.6459 43.372 22.6459C43.8134 22.6459 44.1552 22.2894 44.1552 21.8616C44.1552 21.4338 43.7992 21.063 43.372 21.063C42.9448 21.063 42.5889 21.4195 42.5889 21.8616Z" fill="#233A77"/>
<path d="M42.361 19.3232C41.9339 19.3232 41.5779 19.6798 41.5779 20.1076C41.5779 20.5354 41.9339 20.8777 42.361 20.8777C42.7882 20.8777 43.1442 20.5211 43.1442 20.1076C43.1442 19.694 42.7882 19.3232 42.361 19.3232Z" fill="#233A77"/>
<path d="M40.5669 21.8616C40.5669 22.2894 40.9086 22.6459 41.3358 22.6459C41.763 22.6459 42.1189 22.2894 42.1189 21.8616C42.1189 21.4338 41.763 21.063 41.3358 21.063C40.9086 21.063 40.5669 21.4195 40.5669 21.8616Z" fill="#233A77"/>
<path d="M51.2747 27.9937C51.2747 29.0205 50.7763 29.5339 49.7938 29.5339H47.601V23.9864L46.1629 24.4143V29.5339H43.1442V24.6567L41.706 25.0845V29.5339H38.7158V25.2984L37.2777 25.712V29.5339H35.4978V29.5624H35.0137C34.017 29.5624 33.5186 29.0633 33.5186 28.065V23.9864L32.0947 24.4143V28.0222C32.0947 29.049 31.5963 29.5624 30.5854 29.5624H29.9731V29.5339H28.5492C28.0508 29.5339 27.8087 29.2915 27.8087 28.8066V21.063L26.3706 21.5193V28.8636C26.3706 30.033 27.0826 30.8174 28.3641 30.8174H30.6708C31.5963 30.8174 32.294 30.5464 32.8066 30.0187C33.3193 30.5464 34.017 30.8174 34.8998 30.8174H49.8223C50.6766 30.8174 51.3743 30.5607 51.8869 30.0615C52.3995 29.5481 52.6559 28.9207 52.6559 28.1506V21.1058L51.2177 21.5336V28.008L51.2747 27.9937Z" fill="#233A77"/>
<path d="M53.9944 30.8031H55.4325V21.063L53.9944 21.5193V30.8031Z" fill="#233A77"/>
<path d="M65.642 24.9564C66.0691 24.9564 66.4251 24.6141 66.4251 24.172C66.4251 23.73 66.0691 23.3877 65.642 23.3877C65.2148 23.3877 64.873 23.7442 64.873 24.172C64.873 24.5999 65.229 24.9564 65.642 24.9564Z" fill="#233A77"/>
<path d="M68.6748 28.0509C68.6748 29.0349 68.1764 29.534 67.1654 29.534H62.0821C61.0854 29.534 60.587 29.0349 60.587 28.0509V25.2273L59.1631 26.6819V28.2078C59.1631 29.7622 60.2453 30.8032 61.8827 30.8032H67.2366C69.0023 30.8032 70.0702 29.7907 70.0702 28.2078V23.9866L68.6605 24.3574V28.0366L68.6748 28.0509Z" fill="#233A77"/>
<path d="M62.8511 24.172C62.8511 24.6141 63.1928 24.9564 63.62 24.9564C64.0472 24.9564 64.4031 24.6141 64.4031 24.172C64.4031 23.73 64.0472 23.3877 63.62 23.3877C63.1928 23.3877 62.8511 23.7442 62.8511 24.172Z" fill="#233A77"/>
<path d="M79.2259 32.1438C78.7845 32.1438 78.457 32.4861 78.457 32.9139C78.457 33.3417 78.7845 33.6982 79.2259 33.6982C79.6674 33.6982 80.0091 33.3417 80.0091 32.9139C80.0091 32.4861 79.6531 32.1438 79.2259 32.1438Z" fill="#233A77"/>
<path d="M81.2479 32.1438C80.8207 32.1438 80.479 32.4861 80.479 32.9139C80.479 33.3417 80.8207 33.6982 81.2479 33.6982C81.6751 33.6982 82.0311 33.3417 82.0311 32.9139C82.0311 32.4861 81.6751 32.1438 81.2479 32.1438Z" fill="#233A77"/>
<path d="M105.34 32.1438C104.913 32.1438 104.557 32.4861 104.557 32.9139C104.557 33.3417 104.913 33.6982 105.34 33.6982C105.767 33.6982 106.123 33.3417 106.123 32.9139C106.123 32.4861 105.767 32.1438 105.34 32.1438Z" fill="#233A77"/>
<path d="M119.067 21.5194V27.9938C119.067 29.0206 118.569 29.534 117.586 29.534H116.176C115.194 29.534 114.695 29.0491 114.695 28.0651V21.0631L113.257 21.5194V27.9938C113.257 29.0206 112.759 29.534 111.762 29.534H109.128V29.0206C109.128 27.5517 108.929 26.4251 108.53 25.6551C107.946 24.557 106.893 23.9865 105.369 23.9865C104.159 23.9865 103.062 24.4857 102.051 25.4697L103.076 26.4251C103.788 25.6551 104.543 25.2558 105.369 25.2558C106.366 25.2558 107.035 25.6836 107.362 26.525C107.576 27.0384 107.676 27.8655 107.676 29.0206V29.5625H101.225V29.534L100.926 29.5625C99.8584 29.5625 99.2319 29.0634 99.0753 28.0794C98.9329 27.1952 98.6623 26.525 98.2352 26.1114C97.751 25.6551 97.0249 25.4269 96.0424 25.4269C94.2625 25.4269 93.2515 26.2968 92.9952 28.0651C92.8813 29.0349 92.269 29.5197 91.2011 29.5197H86.0466V26.6961C86.0466 25.8404 86.6304 25.1845 87.4989 25.1845C87.9688 25.1845 88.3675 25.3984 88.7377 25.8404L89.7914 24.8707C89.1934 24.286 88.4814 23.9865 87.6698 23.9865C86.7158 23.9865 85.9611 24.2718 85.4201 24.8279C84.8932 25.3841 84.6227 26.0971 84.6227 26.9385V29.5197H82.8997V29.5482H82.4441C81.4474 29.5482 80.949 29.0491 80.949 28.0509V23.9723L79.5251 24.4001V28.0081C79.5251 29.0349 79.0267 29.5482 78.0158 29.5482H77.3892V29.5197H73.5589C73.0606 29.5197 72.8185 29.2773 72.8185 28.7924V21.0488L71.3804 21.5052V28.8495C71.3804 30.0189 72.0923 30.8032 73.3738 30.8032H78.1012C79.0267 30.8032 79.7244 30.5322 80.237 30.0046C80.7496 30.5322 81.4474 30.8032 82.3302 30.8032H91.2723C92.0839 30.8032 92.7104 30.5465 93.1376 30.0474C93.5505 31.2025 94.6469 31.8585 96.0139 31.8585C97.4663 31.8585 98.5769 31.1169 98.9329 29.8477C99.3885 30.4467 100.044 30.7604 100.869 30.7889H100.998H111.833C112.759 30.7889 113.457 30.518 113.955 29.9761C114.482 30.518 115.18 30.7889 116.048 30.7889H117.629C118.483 30.7889 119.181 30.5322 119.693 30.0331C120.206 29.5197 120.462 28.8922 120.462 28.1222V21.0773L119.024 21.5052L119.067 21.5194ZM96.0281 30.6606C94.9602 30.6606 94.4334 29.9903 94.4334 28.6498C94.4334 27.3093 94.9602 26.639 96.0281 26.639C97.0961 26.639 97.6087 27.3093 97.6087 28.6498C97.6087 29.9903 97.0818 30.6606 96.0281 30.6606Z" fill="#233A77"/>
<path d="M1.58048 46.2192C1.70863 46.7326 2.09308 46.9893 2.73384 46.9893C3.3746 46.9893 3.67362 46.7183 3.67362 46.3333C3.67362 45.9055 3.43155 45.7058 2.50602 45.4919C1.18179 45.1924 0.811572 44.7503 0.811572 44.0801C0.811572 43.2815 1.43809 42.6968 2.61993 42.6968C3.92992 42.6968 4.45676 43.3813 4.51372 44.0658H3.54547C3.47427 43.7236 3.26068 43.3813 2.57721 43.3813C2.06461 43.3813 1.77983 43.5952 1.77983 43.966C1.77983 44.3368 2.02189 44.4936 2.86199 44.679C4.32861 45.007 4.64187 45.5347 4.64187 46.2049C4.64187 47.0606 3.97264 47.6595 2.66265 47.6595C1.35266 47.6595 0.740377 47.032 0.626465 46.1907H1.59472L1.58048 46.2192Z" fill="#233A77"/>
<path d="M6.29362 47.2461V49.0002H5.38232V44.8788C5.38232 44.5936 5.38232 44.2941 5.38232 44.0089H6.26514C6.27938 44.1087 6.29362 44.3369 6.29362 44.4938C6.46449 44.1943 6.82047 43.9233 7.43274 43.9233C8.28709 43.9233 8.94208 44.6079 8.94208 45.7202C8.94208 46.9894 8.21589 47.7024 7.29035 47.7024C6.73503 47.7024 6.43601 47.4885 6.27938 47.2604L6.29362 47.2461ZM8.01654 45.7487C8.01654 45.0499 7.70329 44.6364 7.1622 44.6364C6.50721 44.6364 6.26514 45.0357 6.26514 45.8058C6.26514 46.5758 6.47873 46.9894 7.11949 46.9894C7.71753 46.9894 8.01654 46.5331 8.01654 45.7487Z" fill="#233A77"/>
<path d="M10.4515 45.9911C10.4515 46.533 10.7363 47.0036 11.3058 47.0036C11.79 47.0036 11.9466 46.7897 12.0463 46.5615H12.9576C12.8152 47.0036 12.4022 47.7023 11.2631 47.7023C10.0386 47.7023 9.51172 46.8039 9.51172 45.8627C9.51172 44.7504 10.1098 43.9375 11.3058 43.9375C12.5731 43.9375 13.0145 44.8502 13.0145 45.7058C13.0145 45.8199 13.0145 45.9055 13.0145 46.0053H10.4657L10.4515 45.9911ZM12.1032 45.4349C12.1032 44.9643 11.8754 44.565 11.3201 44.565C10.7648 44.565 10.5369 44.9358 10.48 45.4349H12.1032Z" fill="#233A77"/>
<path d="M17.0157 46.476C16.8733 47.0892 16.4319 47.7024 15.3639 47.7024C14.2391 47.7024 13.6125 46.9466 13.6125 45.8343C13.6125 44.7932 14.2675 43.9233 15.4209 43.9233C16.6312 43.9233 17.0014 44.7505 17.0299 45.1783H16.1329C16.0617 44.8646 15.8623 44.6221 15.4067 44.6221C14.8656 44.6221 14.5523 45.0642 14.5523 45.8058C14.5523 46.5901 14.8656 47.0037 15.3924 47.0037C15.7911 47.0037 16.0047 46.7898 16.1186 46.4618H17.0157V46.476Z" fill="#233A77"/>
<path d="M17.7561 42.4829H18.6674V43.3386H17.7561V42.4829ZM17.7561 44.0088H18.6674V47.6168H17.7561V44.0088Z" fill="#233A77"/>
<path d="M22.6685 46.7326C22.6685 47.0749 22.6969 47.517 22.7254 47.6168H21.8568C21.8284 47.5455 21.7999 47.3601 21.7999 47.2317C21.6717 47.4456 21.3869 47.7023 20.7035 47.7023C19.7922 47.7023 19.4077 47.1319 19.4077 46.5757C19.4077 45.7629 20.0912 45.3921 21.2018 45.3921H21.7714V45.1497C21.7714 44.8787 21.6717 44.5792 21.1164 44.5792C20.6038 44.5792 20.5041 44.7931 20.4614 45.0641H19.5928C19.6498 44.4794 20.0342 43.9375 21.1591 43.9375C22.1416 43.9375 22.6827 44.3083 22.6827 45.1639V46.7469L22.6685 46.7326ZM21.7714 45.934H21.2873C20.618 45.934 20.319 46.1194 20.319 46.5187C20.319 46.8182 20.5184 47.0606 20.9313 47.0606C21.686 47.0606 21.7714 46.5757 21.7714 46.0338V45.934Z" fill="#233A77"/>
<path d="M23.6794 47.6167V42.4971H24.5907V47.6167H23.6794Z" fill="#233A77"/>
<path d="M25.6018 42.4829H26.5131V43.3386H25.6018V42.4829ZM25.6018 44.0088H26.5131V47.6168H25.6018V44.0088Z" fill="#233A77"/>
<path d="M27.2393 46.9465L29.2185 44.7076H27.3389V44.0088H30.2579V44.6933L28.3214 46.9037H30.3861L30.2722 47.6025H27.2535V46.9322L27.2393 46.9465Z" fill="#233A77"/>
<path d="M31.6534 45.9911C31.6534 46.533 31.9382 47.0036 32.5077 47.0036C32.9919 47.0036 33.1485 46.7897 33.2482 46.5615H34.1595C34.0171 47.0036 33.6041 47.7023 32.465 47.7023C31.2405 47.7023 30.7136 46.8039 30.7136 45.8627C30.7136 44.7504 31.3117 43.9375 32.5077 43.9375C33.775 43.9375 34.2164 44.8502 34.2164 45.7058C34.2164 45.8199 34.2164 45.9055 34.2164 46.0053H31.6676L31.6534 45.9911ZM33.3051 45.4349C33.3051 44.9643 33.0773 44.565 32.522 44.565C31.9667 44.565 31.7388 44.9358 31.6819 45.4349H33.3051Z" fill="#233A77"/>
<path d="M38.4169 42.483V46.6044C38.4169 46.9324 38.4169 47.2746 38.4169 47.6026H37.5341C37.5199 47.5028 37.4914 47.2889 37.4914 47.1748C37.3063 47.4885 36.9645 47.6739 36.3807 47.6739C35.4125 47.6739 34.8145 46.9324 34.8145 45.82C34.8145 44.7077 35.4552 43.9091 36.5231 43.9091C37.1069 43.9091 37.406 44.123 37.4914 44.2941V42.4688H38.4027L38.4169 42.483ZM35.7542 45.82C35.7542 46.5759 36.096 46.9894 36.637 46.9894C37.406 46.9894 37.5341 46.4047 37.5341 45.7915C37.5341 45.107 37.4202 44.6364 36.6655 44.6364C36.0817 44.6364 35.7542 45.0785 35.7542 45.82Z" fill="#233A77"/>
<path d="M45.5649 46.1621C45.3513 47.032 44.6678 47.6738 43.429 47.6738C41.8485 47.6738 41.0796 46.5757 41.0796 45.2067C41.0796 43.8376 41.8627 42.6968 43.4717 42.6968C44.7817 42.6968 45.4367 43.4241 45.5649 44.2227H44.6109C44.4827 43.7949 44.1695 43.4098 43.4433 43.4098C42.4608 43.4098 42.0763 44.2512 42.0763 45.1639C42.0763 46.0338 42.4323 46.9322 43.4717 46.9322C44.2122 46.9322 44.4827 46.4901 44.6109 46.1336H45.5649V46.1621Z" fill="#233A77"/>
<path d="M49.8079 45.8057C49.8079 46.8752 49.1387 47.7023 47.9569 47.7023C46.775 47.7023 46.1343 46.9037 46.1343 45.8342C46.1343 44.7646 46.8177 43.9375 47.9996 43.9375C49.096 43.9375 49.8079 44.6791 49.8079 45.8199V45.8057ZM47.0741 45.8057C47.0741 46.533 47.4158 47.0036 47.9854 47.0036C48.5549 47.0036 48.8824 46.5472 48.8824 45.8199C48.8824 45.0498 48.5549 44.622 47.9711 44.622C47.3873 44.622 47.0741 45.0356 47.0741 45.8199V45.8057Z" fill="#233A77"/>
<path d="M53.8235 46.5615C53.8235 46.9037 53.8235 47.3173 53.8235 47.6025H52.9264C52.9122 47.5027 52.8979 47.303 52.8979 47.1462C52.6844 47.5169 52.3426 47.6881 51.8158 47.6881C51.0896 47.6881 50.5627 47.2888 50.5627 46.3618V44.0088H51.474V46.1907C51.474 46.6185 51.6164 46.975 52.129 46.975C52.6844 46.975 52.8979 46.6898 52.8979 45.9197V44.0231H53.8092V46.5757L53.8235 46.5615Z" fill="#233A77"/>
<path d="M54.8345 44.9216C54.8345 44.6079 54.8345 44.2799 54.8345 44.0089H55.7173C55.7315 44.1087 55.7458 44.3939 55.7458 44.508C55.8882 44.2513 56.1872 43.9233 56.8707 43.9233C57.6111 43.9233 58.1237 44.3797 58.1237 45.3066V47.6026H57.2124V45.4065C57.2124 44.9501 57.0415 44.6364 56.5432 44.6364C56.0021 44.6364 55.7458 44.9644 55.7458 45.6346V47.6026H54.8345V44.9073V44.9216Z" fill="#233A77"/>
<path d="M62.3099 46.476C62.1675 47.0892 61.7261 47.7024 60.6581 47.7024C59.5333 47.7024 58.9067 46.9466 58.9067 45.8343C58.9067 44.7932 59.5617 43.9233 60.7151 43.9233C61.9254 43.9233 62.2956 44.7505 62.3241 45.1783H61.427C61.3559 44.8646 61.1565 44.6221 60.7009 44.6221C60.1598 44.6221 59.8465 45.0642 59.8465 45.8058C59.8465 46.5901 60.1598 47.0037 60.6866 47.0037C61.0853 47.0037 61.2989 46.7898 61.4128 46.4618H62.3099V46.476Z" fill="#233A77"/>
<path d="M63.0503 42.4829H63.9616V43.3386H63.0503V42.4829ZM63.0503 44.0088H63.9616V47.6168H63.0503V44.0088Z" fill="#233A77"/>
<path d="M64.9585 47.6167V42.4971H65.8698V47.6167H64.9585Z" fill="#233A77"/>
<path d="M68.8315 47.6168V44.6791H68.262V44.0088H68.8315V43.6523C68.8315 42.9393 69.1733 42.4116 69.9991 42.4116C70.1558 42.4116 70.3693 42.4259 70.469 42.4544V43.1532C70.469 43.1532 70.2981 43.1247 70.2127 43.1247C69.871 43.1247 69.7428 43.2673 69.7428 43.7094V44.0088H70.4405V44.6791H69.7428V47.6168H68.8315Z" fill="#233A77"/>
<path d="M74.3704 45.8057C74.3704 46.8752 73.7012 47.7023 72.5194 47.7023C71.3375 47.7023 70.6968 46.9037 70.6968 45.8342C70.6968 44.7646 71.3802 43.9375 72.5621 43.9375C73.6585 43.9375 74.3704 44.6791 74.3704 45.8199V45.8057ZM71.6366 45.8057C71.6366 46.533 71.9783 47.0036 72.5479 47.0036C73.1174 47.0036 73.4449 46.5472 73.4449 45.8199C73.4449 45.0498 73.1174 44.622 72.5336 44.622C71.9498 44.622 71.6366 45.0356 71.6366 45.8199V45.8057Z" fill="#233A77"/>
<path d="M75.1536 44.9929C75.1536 44.5793 75.1536 44.2799 75.1536 44.0089H76.0506C76.0506 44.0945 76.0791 44.4225 76.0791 44.6792C76.25 44.2371 76.6771 43.9376 77.3179 43.9233V44.7647C76.549 44.7647 76.0791 45.0214 76.0791 45.9769V47.6026H75.1678V44.9786L75.1536 44.9929Z" fill="#233A77"/>
<path d="M81.02 47.6167V45.8769C81.02 45.8769 81.02 45.7771 80.9773 45.7343L79.2117 42.7681H80.2938C80.7068 43.5239 81.3048 44.5792 81.5469 45.0783C81.7747 44.6077 82.4012 43.4954 82.8141 42.7681H83.8251L82.0168 45.72C82.0168 45.72 81.974 45.7771 81.974 45.8627V47.6025H81.02V47.6167Z" fill="#233A77"/>
<path d="M87.0147 45.8057C87.0147 46.8752 86.3455 47.7023 85.1637 47.7023C83.9818 47.7023 83.3411 46.9037 83.3411 45.8342C83.3411 44.7646 84.0245 43.9375 85.2064 43.9375C86.3028 43.9375 87.0147 44.6791 87.0147 45.8199V45.8057ZM84.2666 45.8057C84.2666 46.533 84.6083 47.0036 85.1779 47.0036C85.7475 47.0036 86.075 46.5472 86.075 45.8199C86.075 45.0498 85.7475 44.622 85.1637 44.622C84.5799 44.622 84.2666 45.0356 84.2666 45.8199V45.8057Z" fill="#233A77"/>
<path d="M91.0159 46.5615C91.0159 46.9037 91.0159 47.3173 91.0159 47.6025H90.1188C90.1046 47.5027 90.0903 47.303 90.0903 47.1462C89.8767 47.5169 89.535 47.6881 89.0082 47.6881C88.282 47.6881 87.7551 47.2888 87.7551 46.3618V44.0088H88.6664V46.1907C88.6664 46.6185 88.8088 46.975 89.3214 46.975C89.8767 46.975 90.0903 46.6898 90.0903 45.9197V44.0231H91.0016V46.5757L91.0159 46.5615Z" fill="#233A77"/>
<path d="M91.6851 44.0088H92.2973V43.0105H93.2086V44.0088H93.9775V44.679H93.2086V46.5614C93.2086 46.8609 93.2941 46.9893 93.6216 46.9893C93.6928 46.9893 93.8067 46.9893 93.8921 46.975V47.5882C93.707 47.6452 93.4365 47.6595 93.2371 47.6595C92.5536 47.6595 92.2973 47.3173 92.2973 46.6898V44.679H91.6851V44.0088Z" fill="#233A77"/>
<path d="M95.5295 42.4829V44.4652C95.7004 44.2085 96.0279 43.9232 96.6402 43.9232C97.3094 43.9232 97.9075 44.294 97.9075 45.3065V47.6168H96.9962V45.4492C96.9962 44.9358 96.7826 44.6505 96.3127 44.6505C95.7004 44.6505 95.5153 45.0641 95.5153 45.6916V47.6168H94.604V42.4972H95.5153L95.5295 42.4829Z" fill="#233A77"/>
<path d="M100.855 47.6167V42.7681H102.065C102.735 43.8661 104.045 45.991 104.301 46.5186C104.244 45.9767 104.244 45.1639 104.244 44.3653V42.7681H105.113V47.6167H103.973C103.375 46.6327 101.951 44.2654 101.681 43.7093C101.724 44.1799 101.724 45.1068 101.724 45.9767V47.6167H100.841H100.855Z" fill="#233A77"/>
<path d="M110.723 47.6167H110.011C109.968 47.4884 109.94 47.303 109.94 47.0748C109.683 47.4313 109.199 47.688 108.416 47.688C106.935 47.688 106.124 46.6185 106.124 45.2495C106.124 43.7949 106.992 42.6968 108.573 42.6968C109.84 42.6968 110.609 43.367 110.737 44.2084H109.783C109.655 43.8091 109.342 43.4241 108.558 43.4241C107.462 43.4241 107.106 44.2797 107.106 45.2067C107.106 46.1336 107.49 46.9607 108.544 46.9607C109.598 46.9607 109.769 46.3048 109.769 45.7343V45.6915H108.544V44.9357H110.709V47.6167H110.723Z" fill="#233A77"/>
<path d="M116.518 45.164C116.518 46.5045 115.692 47.6739 114.055 47.6739C112.417 47.6739 111.648 46.5758 111.648 45.1783C111.648 43.7807 112.545 42.6826 114.112 42.6826C115.578 42.6826 116.518 43.6809 116.518 45.1497V45.164ZM112.631 45.164C112.631 46.148 113.115 46.9323 114.083 46.9323C115.137 46.9323 115.521 46.1052 115.521 45.1783C115.521 44.2513 115.08 43.4384 114.069 43.4384C113.058 43.4384 112.631 44.1943 112.631 45.164Z" fill="#233A77"/>
<path d="M117.928 46.5472C118.013 46.8752 118.284 47.0606 118.711 47.0606C119.138 47.0606 119.323 46.8895 119.323 46.647C119.323 46.4046 119.152 46.262 118.554 46.1337C117.372 45.8627 117.159 45.5062 117.159 45.0071C117.159 44.5079 117.557 43.9375 118.64 43.9375C119.722 43.9375 120.12 44.5079 120.163 45.0071H119.295C119.252 44.8359 119.124 44.565 118.611 44.565C118.198 44.565 118.07 44.7361 118.07 44.9358C118.07 45.1497 118.198 45.2495 118.839 45.3921C120.063 45.6631 120.263 46.0624 120.263 46.59C120.263 47.2032 119.764 47.7166 118.682 47.7166C117.6 47.7166 117.116 47.2032 117.031 46.5615H117.928V46.5472Z" fill="#233A77"/>
<path d="M179.81 41.6556C181.576 41.6556 183 40.2296 183 38.4612V30.3326C183 28.5643 181.576 27.1382 179.81 27.1382C178.045 27.1382 176.621 28.5643 176.621 30.3326V38.4612C176.621 40.2296 178.045 41.6556 179.81 41.6556Z" fill="#3EB984"/>
<path d="M171.139 43.7236C172.904 43.7236 174.328 42.2975 174.328 40.5291V25.6124C174.328 23.844 172.904 22.418 171.139 22.418C169.373 22.418 167.949 23.844 167.949 25.6124V40.5291C167.949 42.2975 169.373 43.7236 171.139 43.7236Z" fill="#3EB984"/>
<path d="M162.467 47.6167C164.233 47.6167 165.657 46.1906 165.657 44.4223V16.5853C165.657 14.8169 164.233 13.3909 162.467 13.3909C160.702 13.3909 159.278 14.8169 159.278 16.5853V44.4223C159.278 46.1906 160.702 47.6167 162.467 47.6167Z" fill="#1B82AE"/>
<path d="M153.781 47.6167C155.547 47.6167 156.971 46.1906 156.971 44.4223V13.234C156.971 11.4656 155.547 10.0396 153.781 10.0396C152.016 10.0396 150.592 11.4656 150.592 13.234V44.4365C150.592 46.2049 152.016 47.6309 153.781 47.6309" fill="#1B82AE"/>
<path d="M136.438 30.5039C138.204 30.5039 139.628 29.0778 139.628 27.3094V15.088C139.628 13.3196 138.204 11.8936 136.438 11.8936C134.673 11.8936 133.249 13.3196 133.249 15.088V27.3094C133.249 29.0778 134.673 30.5039 136.438 30.5039Z" fill="#233A77"/>
<path d="M139.542 7.45841C139.542 9.19823 138.133 10.5958 136.41 10.5958C134.687 10.5958 133.277 9.18397 133.277 7.45841C133.277 5.73286 134.687 4.32104 136.41 4.32104C138.133 4.32104 139.542 5.73286 139.542 7.45841Z" fill="#233A77"/>
<path d="M148.228 3.13737C148.228 4.87718 146.819 6.27474 145.096 6.27474C143.373 6.27474 141.963 4.86292 141.963 3.13737C141.963 1.41182 143.373 0 145.096 0C146.819 0 148.228 1.41182 148.228 3.13737Z" fill="#233A77"/>
<path d="M156.928 5.63297C156.928 7.37279 155.519 8.77034 153.796 8.77034C152.073 8.77034 150.663 7.35853 150.663 5.63297C150.663 3.90742 152.073 2.49561 153.796 2.49561C155.519 2.49561 156.928 3.90742 156.928 5.63297Z" fill="#1B82AE"/>
<path d="M165.6 8.98429C165.6 10.7241 164.19 12.1217 162.467 12.1217C160.744 12.1217 159.335 10.7098 159.335 8.98429C159.335 7.25874 160.744 5.84692 162.467 5.84692C164.19 5.84692 165.6 7.25874 165.6 8.98429Z" fill="#1B82AE"/>
<path d="M174.328 18.0256C174.328 19.7654 172.919 21.1629 171.196 21.1629C169.473 21.1629 168.063 19.7511 168.063 18.0256C168.063 16.3 169.473 14.8882 171.196 14.8882C172.919 14.8882 174.328 16.3 174.328 18.0256Z" fill="#3EB984"/>
<path d="M182.943 22.746C182.943 24.4858 181.533 25.8834 179.81 25.8834C178.087 25.8834 176.678 24.4716 176.678 22.746C176.678 21.0205 178.087 19.6086 179.81 19.6086C181.533 19.6086 182.943 21.0205 182.943 22.746Z" fill="#3EB984"/>
<path d="M145.11 40.5576C146.876 40.5576 148.299 39.1315 148.299 37.3632V10.7811C148.299 9.01275 146.876 7.58667 145.11 7.58667C143.344 7.58667 141.92 9.01275 141.92 10.7811V37.3632C141.92 39.1315 143.344 40.5576 145.11 40.5576Z" fill="#233A77"/>
</g>
<defs>
<clipPath id="clip0_83_131">
<rect width="183" height="49" fill="white"/>
</clipPath>
</defs>
</svg>
